<svg width="154" height="154" viewBox="0 0 154 154" fill="none" xmlns="http://www.w3.org/2000/svg">
<g clip-path="url(#clip0_876_6305)">
<rect width="154" height="154" rx="77" fill="#F1FFF1"/>
<g opacity="0.1">
<ellipse cx="77.5" cy="22.1777" rx="75.5" ry="4" fill="#349D39"/>
<ellipse cx="77.5" cy="45.1777" rx="75.5" ry="4" fill="#349D39" fill-opacity="0.9"/>
<ellipse cx="77.5" cy="68.1777" rx="75.5" ry="4" fill="#349D39" fill-opacity="0.8"/>
<ellipse cx="77.5" cy="91.1777" rx="75.5" ry="4" fill="#349D39" fill-opacity="0.7"/>
<ellipse cx="77.5" cy="114.178" rx="75.5" ry="4" fill="#349D39" fill-opacity="0.6"/>
<ellipse cx="77.5" cy="137.178" rx="75.5" ry="4" fill="#349D39" fill-opacity="0.5"/>
<ellipse cx="26.8477" cy="77.5" rx="75.5" ry="4" transform="rotate(-90 26.8477 77.5)" fill="#349D39"/>
<ellipse cx="49.8477" cy="77.5" rx="75.5" ry="4" transform="rotate(-90 49.8477 77.5)" fill="#349D39" fill-opacity="0.9"/>
<ellipse cx="72.8477" cy="77.5" rx="75.5" ry="4" transform="rotate(-90 72.8477 77.5)" fill="#349D39" fill-opacity="0.8"/>
<ellipse cx="95.8477" cy="77.5" rx="75.5" ry="4" transform="rotate(-90 95.8477 77.5)" fill="#349D39" fill-opacity="0.7"/>
<ellipse cx="118.848" cy="77.5" rx="75.5" ry="4" transform="rotate(-90 118.848 77.5)" fill="#349D39" fill-opacity="0.6"/>
<ellipse cx="141.848" cy="77.5" rx="75.5" ry="4" transform="rotate(-90 141.848 77.5)" fill="#349D39" fill-opacity="0.5"/>
</g>
<path d="M72.913 66.8999C72.913 68.0601 72.3644 68.9999 71.6884 68.9999C71.0125 68.9999 70.4639 68.0595 70.4639 66.8999V62.0482C70.4639 60.888 71.0118 59.9482 71.6884 59.9482C72.3644 59.9482 72.913 60.8886 72.913 62.0482V66.8999ZM81.9784 66.8999C81.9784 68.0601 81.4298 68.9999 80.7539 68.9999C80.0779 68.9999 79.5293 68.0595 79.5293 66.8999V62.0482C79.5293 60.888 80.0779 59.9482 80.7539 59.9482C81.4298 59.9482 81.9784 60.8886 81.9784 62.0482V66.8999Z" fill="#F79420"/>
<path d="M56.1748 53.8668C56.1748 51.1118 60.1779 51.94 63.3726 51.94C66.5698 51.94 69.4094 51.8888 69.4094 54.6424C69.4094 57.4013 66.8172 59.6345 63.6226 59.6345C60.4253 59.6345 56.1748 56.625 56.1748 53.8668ZM97.825 53.8668C97.825 51.1118 93.8219 51.94 90.624 51.94C87.4274 51.94 84.5878 51.8888 84.5878 54.6424C84.5878 57.4013 87.18 59.6345 90.3766 59.6345C93.5719 59.6345 97.825 56.625 97.825 53.8668Z" fill="#6BBE70"/>
<path d="M61.2695 52.0227C61.2695 58.3601 68.3426 63.4933 77.0786 63.4933C85.8126 63.4933 92.8877 58.3608 92.8877 52.0227C92.8877 45.6912 85.8126 30.0698 77.0786 30.0698C68.3426 30.0698 61.2695 45.6912 61.2695 52.0227Z" fill="#C0E1C2"/>
<path d="M70.6048 44.965C72.3923 44.965 73.8414 43.208 73.8414 41.0406C73.8414 38.8732 72.3923 37.1162 70.6048 37.1162C68.8172 37.1162 67.3682 38.8732 67.3682 41.0406C67.3682 43.208 68.8172 44.965 70.6048 44.965Z" fill="#F4F5F5"/>
<path d="M72.7525 41.1914C72.7525 42.6299 71.7904 43.7954 70.6066 43.7954C69.4201 43.7954 68.458 42.6306 68.458 41.1914C68.458 39.7549 69.4201 38.5874 70.6066 38.5874C71.7904 38.5874 72.7525 39.7549 72.7525 41.1914Z" fill="#25333A"/>
<path d="M83.5755 44.965C85.363 44.965 86.8121 43.208 86.8121 41.0406C86.8121 38.8732 85.363 37.1162 83.5755 37.1162C81.788 37.1162 80.3389 38.8732 80.3389 41.0406C80.3389 43.208 81.788 44.965 83.5755 44.965Z" fill="#F4F5F5"/>
<path d="M83.5753 43.7954C84.7608 43.7954 85.7219 42.6296 85.7219 41.1914C85.7219 39.7533 84.7608 38.5874 83.5753 38.5874C82.3898 38.5874 81.4287 39.7533 81.4287 41.1914C81.4287 42.6296 82.3898 43.7954 83.5753 43.7954Z" fill="#25333A"/>
<path d="M73.082 45.1728C73.082 43.2729 74.8703 44.7081 77.0753 44.7081C79.2816 44.7081 81.0679 43.2729 81.0679 45.1728C81.0679 47.0759 79.281 50.6708 77.0753 50.6708C74.8697 50.6708 73.082 47.0759 73.082 45.1728Z" fill="#F05A2A"/>
<path d="M73.082 43.8776C73.082 41.9777 74.871 43.4123 77.0747 43.4123C79.2783 43.4123 81.0673 41.9784 81.0673 43.8776C81.0673 45.7801 79.2783 49.375 77.0747 49.375C74.871 49.375 73.082 45.7801 73.082 43.8776Z" fill="#F79420"/>
<path d="M106.7 126.25L69.2002 126.25C68.7096 126.25 68.2352 126.075 67.8623 125.756L45.4619 106.595C45.2005 106.371 45.0499 106.044 45.0498 105.7L45.0498 60C45.0498 58.2052 46.5051 56.7502 48.2998 56.75L106.7 56.75C108.495 56.75 109.95 58.2051 109.95 60L109.95 123C109.95 124.795 108.495 126.25 106.7 126.25Z" fill="white" stroke="#C0E1C2" stroke-width="1.5"/>
<path d="M69.2002 126.112V109.7C69.2002 107.491 67.4093 105.7 65.2002 105.7H45.3377" stroke="#C0E1C2" stroke-width="1.5"/>
<path d="M72.667 94.3333L78.0003 89M78.0003 89L83.3337 94.3333M78.0003 89V101M88.667 95.3238C90.2957 93.9787 91.3337 91.9439 91.3337 89.6667C91.3337 85.6166 88.0504 82.3333 84.0003 82.3333C83.709 82.3333 83.4364 82.1813 83.2885 81.9303C81.5497 78.9798 78.3396 77 74.667 77C69.1441 77 64.667 81.4772 64.667 87C64.667 89.7548 65.7809 92.2494 67.5829 94.058" stroke="#E1F0E1" stroke-width="1.7" stroke-linecap="round" stroke-linejoin="round"/>
</g>
<defs>
<clipPath id="clip0_876_6305">
<rect width="154" height="154" rx="77" fill="white"/>
</clipPath>
</defs>
</svg>
