<svg width="24" height="24" viewBox="0 0 24 24" fill="none" xmlns="http://www.w3.org/2000/svg">
<path d="M19.8901 8.748C19.1589 9.13546 18.5579 9.72946 18.1619 10.456C17.7659 11.1826 17.5924 12.0096 17.6631 12.834C17.718 13.6645 18.0041 14.463 18.489 15.1394C18.9739 15.8159 19.6382 16.3433 20.4071 16.662C20.4111 16.6932 20.4111 16.7248 20.4071 16.756C19.8802 18.2792 19.0463 19.6781 17.9571 20.866C17.5326 21.3892 16.9503 21.7611 16.2971 21.926C15.8122 22.0108 15.3138 21.9702 14.8491 21.808C14.3541 21.655 13.8711 21.455 13.3651 21.313C12.4759 21.102 11.5422 21.1848 10.7041 21.549C10.2751 21.706 9.83906 21.839 9.39606 21.949C9.12886 22.0105 8.85183 22.0162 8.58235 21.9656C8.31287 21.915 8.05675 21.8092 7.83006 21.655C7.29233 21.3067 6.81505 20.873 6.41706 20.371C5.00291 18.6499 4.07944 16.5791 3.74406 14.377C3.43768 12.887 3.58933 11.3392 4.17906 9.937C4.49729 9.15607 5.0055 8.46698 5.65757 7.93226C6.30964 7.39754 7.08493 7.03413 7.91306 6.875C8.6735 6.73057 9.45893 6.7959 10.1851 7.064L11.7401 7.594C12.0131 7.699 12.3151 7.699 12.5881 7.594C13.2467 7.34045 13.9191 7.12411 14.6021 6.946C15.516 6.68235 16.4871 6.69245 17.3954 6.97505C18.3036 7.25765 19.1091 7.80036 19.7121 8.536L19.8901 8.748Z" fill="#3D3D3D"/>
<path d="M16.1909 2C16.2567 2.61474 16.1762 3.23632 15.9559 3.814C15.5482 4.86665 14.7918 5.74765 13.8129 6.31C13.3251 6.60055 12.7667 6.75137 12.1989 6.746C12.0459 6.746 12.0109 6.746 11.9989 6.546C11.9737 5.5645 12.2948 4.60546 12.9059 3.837C13.6474 2.85819 14.7418 2.20765 15.9559 2.024L16.1909 2Z" fill="#3D3D3D"/>
</svg>
