<svg width="18" height="21" viewBox="0 0 18 21" fill="none" xmlns="http://www.w3.org/2000/svg">
<path fill-rule="evenodd" clip-rule="evenodd" d="M1.22473 0.465194C0.241524 1.49843 -0.276298 3.41977 0.150934 4.44895C0.530939 5.36428 1.05767 5.54748 2.06037 5.11341C3.35887 4.55112 3.43131 3.86246 2.36642 2.20485C1.70675 1.17787 1.63835 0.767824 2.05062 0.309397C2.31113 0.0196231 2.30777 0 1.99802 0C1.81617 0 1.46809 0.209253 1.22473 0.465194ZM10.5121 3.88428C9.49643 4.07188 8.4191 4.5139 7.40279 5.1601C6.42748 5.78008 4.84124 7.46357 4.7004 8.02806C4.56477 8.57209 5.43369 11.7726 5.90815 12.476C6.66765 13.6026 6.58479 15.1328 5.71689 16.0064C5.18041 16.5464 4.6246 16.5137 4.04863 15.9088C3.64459 15.4844 3.55282 15.2093 3.4414 14.0903C3.36913 13.3651 3.25383 12.5854 3.18526 12.3579C3.06929 11.9732 3.05147 11.9672 2.93248 12.2733C2.86206 12.4543 2.7992 13.1574 2.79265 13.8357C2.7787 15.2883 3.17534 16.2554 3.95064 16.6588C4.99469 17.2024 5.80193 16.9393 7.04093 15.6518C8.01002 14.6448 8.39339 14.5267 9.02281 15.0415C9.39323 15.3445 9.41542 15.4595 9.35559 16.7754C9.21004 19.9768 9.22953 20.3109 9.57777 20.567C10.1361 20.9775 11.3568 20.8622 12.4909 20.2918C14.3367 19.3634 16.5459 16.5191 17.4626 13.8912C18.1226 11.9991 18.1802 9.63577 17.6048 8.06393C16.4898 5.01868 13.5975 3.31421 10.5121 3.88428ZM11.064 4.36014C10.8591 4.39312 10.4932 4.65752 10.2509 4.94746C9.73172 5.56829 9.78332 6.28367 10.3901 6.88081C11.6496 8.11992 13.6269 6.41392 12.6156 4.96083C12.3302 4.55095 11.6102 4.27217 11.064 4.36014ZM1.77835 5.74032C1.68272 5.92031 1.6044 6.18539 1.6044 6.32951C1.6044 6.59797 4.66746 15.1895 4.93435 15.6694C5.06108 15.8973 5.13184 15.8726 5.42478 15.4977L5.76714 15.0596L4.63116 10.603C4.00644 8.15206 3.40744 5.98155 3.30022 5.77991C3.03971 5.29002 2.0318 5.2638 1.77835 5.74032ZM13.6442 5.85908C12.4665 7.04439 13.8723 8.99228 15.3501 8.22311C16.0331 7.86753 16.3343 7.09852 16.0557 6.42137C15.6135 5.34719 14.4277 5.07061 13.6442 5.85908ZM7.13774 6.07679C6.46933 6.74954 6.47656 7.46729 7.15841 8.15358C7.59926 8.59729 7.75573 8.65498 8.28297 8.56887C9.14936 8.42745 9.58013 7.93502 9.58013 7.086C9.58013 5.70937 8.1075 5.10089 7.13774 6.07679ZM15.1938 8.88368C13.7619 9.66673 14.7239 12.0035 16.313 11.6021C17.4387 11.3177 17.7621 9.97765 16.9116 9.12169C16.3733 8.57987 15.8757 8.51085 15.1938 8.88368ZM14.695 12.2573C14.4535 12.3931 14.1656 12.724 14.055 12.9926C13.4408 14.485 15.3212 15.7513 16.4557 14.6095C17.6372 13.4201 16.1528 11.4372 14.695 12.2573ZM13.4321 15.0154C12.3403 15.1927 11.9096 16.7965 12.7568 17.5302C13.7355 18.3775 15.218 17.7802 15.218 16.5386C15.218 15.559 14.397 14.8586 13.4321 15.0154ZM5.86378 17.2629C5.50192 17.4008 5.5026 17.4049 6.13487 19.1386C6.70866 20.7118 7.15068 21.4135 7.15068 20.7514C7.15068 20.5369 6.32042 17.2127 6.2505 17.1474C6.23723 17.1349 6.06311 17.187 5.86378 17.2629ZM10.163 17.7489C9.89273 18.0209 9.67172 18.4053 9.67172 18.6032C9.67172 19.5984 10.6697 20.4359 11.5813 20.2055C12.1697 20.057 12.697 19.3648 12.697 18.7411C12.697 18.05 11.8875 17.2545 11.1843 17.2545C10.8227 17.2545 10.4983 17.4114 10.163 17.7489Z" fill="#3B006B"/>
</svg>
