<svg width="24" height="24" viewBox="0 0 24 24" fill="none" xmlns="http://www.w3.org/2000/svg">
<path fill-rule="evenodd" clip-rule="evenodd" d="M11.0441 1.56045C10.4918 1.64692 10.2353 1.79095 10.1457 2.06499C9.96126 2.62896 10.108 3.42249 10.4497 3.70867C10.5507 3.79326 10.5881 3.77461 10.7955 3.53647C11.1603 3.11753 11.423 2.49332 11.4612 1.95464C11.4793 1.69999 11.4676 1.49545 11.4352 1.50008C11.4029 1.50464 11.2269 1.53187 11.0441 1.56045ZM11.7412 1.84388C11.7408 2.00072 11.6994 2.28442 11.6493 2.47447C11.4314 3.30047 10.9241 3.90167 9.957 4.4802C8.70009 5.23207 7.94438 6.20867 7.50986 7.64279C7.34641 8.18234 7.33085 8.32959 7.33085 9.34047C7.33085 10.351 7.34641 10.4987 7.50966 11.0375C7.80287 12.0051 8.3355 12.9401 8.90968 13.4952L9.14798 13.7256L8.92091 13.1598C8.50573 12.1251 8.38402 11.1013 8.5841 10.3261C8.89326 9.12809 9.55266 8.51199 12.1157 7.02609C13.8775 6.00467 14.4114 5.37355 14.4114 4.31222C14.4114 4.02645 14.3761 3.66037 14.3329 3.49863C14.2378 3.14188 13.9822 2.62057 13.8472 2.50747C13.7631 2.43703 13.7378 2.4752 13.6763 2.76467C13.5662 3.28262 13.292 3.76583 12.8764 4.1743C12.4056 4.63697 10.4383 5.83777 10.33 5.72849C10.2132 5.61062 10.3631 5.49041 11.3215 4.93362C11.8147 4.6471 12.3941 4.25205 12.6091 4.05576C13.0757 3.62965 13.3927 3.03555 13.4494 2.48117L13.4878 2.10665L13.13 1.92324C12.7341 1.72025 12.2057 1.56079 11.9248 1.55958C11.7541 1.55884 11.742 1.57756 11.7412 1.84388ZM9.49263 2.46809C9.16599 2.84262 9.0167 3.2629 9.0167 3.80802C9.0167 4.17504 9.11421 4.64462 9.19039 4.64462C9.20568 4.64462 9.37471 4.54353 9.56608 4.42002C9.75745 4.29652 9.99695 4.14445 10.0983 4.08212L10.2826 3.96875L10.1256 3.75321C9.87504 3.40941 9.78763 3.10961 9.79514 2.61984C9.79893 2.36827 9.79242 2.16253 9.78065 2.16253C9.76882 2.16253 9.63927 2.30005 9.49263 2.46809ZM13.9023 6.0833C13.7195 6.27361 13.4839 6.49056 13.3787 6.56536L13.1875 6.70147L13.4856 6.87777C13.8641 7.10162 14.5338 7.65017 14.5338 7.73624C14.5338 7.90998 14.3134 7.85746 14.0452 7.61978C13.8849 7.47776 13.568 7.25102 13.341 7.11591L12.9284 6.87039L12.3518 7.20514C12.0347 7.38921 11.7495 7.5649 11.7181 7.59556C11.6372 7.67445 12.0054 8.19012 12.4966 8.6858C13.0084 9.20235 13.5389 9.49423 14.2207 9.63457C14.5055 9.69313 14.7968 9.77263 14.8681 9.81113C15.3424 10.0673 15.3942 11.612 14.9696 12.844C14.8835 13.0939 14.8235 13.2984 14.8363 13.2984C14.8883 13.2984 15.4602 12.4365 15.6162 12.1228C15.9772 11.3969 16.0946 10.8525 16.0931 9.91068C16.092 9.22033 16.0606 8.922 15.9423 8.47932C15.7659 7.81895 15.4946 7.19266 15.1912 6.74521C14.9521 6.39269 14.3393 5.71212 14.2749 5.72762C14.2528 5.73292 14.0851 5.89298 13.9023 6.0833ZM9.51989 6.17996C9.47462 6.25382 9.64405 6.40416 9.70414 6.34351C9.72821 6.31923 9.74788 6.25912 9.74788 6.20988C9.74788 6.10999 9.57652 6.08745 9.51989 6.17996ZM20.5234 8.03375C20.1139 8.97534 19.797 9.77531 19.8191 9.81147C19.8413 9.84756 19.8904 9.87714 19.9283 9.87714C19.9662 9.87714 20.0805 9.93705 20.1823 10.0102L20.3675 10.1433L21.0009 8.61825C21.922 6.40053 21.8736 6.53725 21.7786 6.4216C21.7334 6.36666 21.6 6.32171 21.4821 6.32171H21.2679L20.5234 8.03375ZM10.7098 8.18804C9.98166 8.66481 9.40157 9.19269 9.17277 9.5866C8.62777 10.5252 8.61834 11.6292 9.14353 13.0036C9.53943 14.0397 10.1657 14.8599 10.9579 15.3799C11.707 15.8717 12.1464 15.8659 12.8878 15.3544C14.2106 14.442 15.1703 12.2769 14.9699 10.6574C14.9057 10.1389 14.7965 10.0328 14.2015 9.91055C13.9273 9.8542 13.5121 9.71413 13.2788 9.59928C12.7994 9.36335 12.0114 8.64676 11.666 8.1329C11.5433 7.95037 11.4121 7.80023 11.3745 7.79929C11.3369 7.79836 11.0378 7.97324 10.7098 8.18804ZM14.8662 8.46839C14.8662 8.56941 14.9009 8.60564 14.9825 8.58981C15.0464 8.57733 15.0988 8.52272 15.0988 8.46839C15.0988 8.41405 15.0464 8.35944 14.9825 8.34696C14.9009 8.33113 14.8662 8.36736 14.8662 8.46839ZM5.07256 9.34765C4.26706 9.76719 3.77517 10.4963 3.71375 11.362L3.68131 11.8197L4.21308 11.7784C4.71188 11.7395 5.19054 11.8295 5.73654 12.0647C5.86769 12.1212 6.05188 11.433 6.04364 10.9169C6.03406 10.3175 5.67645 9.13117 5.50861 9.14244C5.48215 9.14425 5.28593 9.23656 5.07256 9.34765ZM19.1405 10.2079C19.055 10.2884 18.9607 10.5284 18.8917 10.8413C18.8306 11.1185 18.7095 11.4511 18.6225 11.5804L18.4643 11.8157L18.7586 11.8602C19.6568 11.9961 20.5191 11.3715 20.3533 10.705C20.3289 10.6069 20.2091 10.4258 20.0869 10.3025C19.9022 10.1162 19.8154 10.0784 19.5716 10.0784C19.3737 10.0784 19.2335 10.1205 19.1405 10.2079ZM1.54732 10.4977C1.41757 10.9864 1.5652 11.8721 1.86146 12.3823C2.1336 12.851 2.19827 12.8775 2.427 12.6147C2.53495 12.4906 2.80456 12.2842 3.02617 12.1562L3.42919 11.9232L3.43112 11.5094C3.43225 11.2818 3.45132 11.0477 3.47359 10.9891C3.52624 10.8506 2.95631 10.5811 2.32537 10.4462C1.69661 10.3118 1.59491 10.3185 1.54732 10.4977ZM3.76075 12.1112C2.14038 12.5752 1.4171 14.5024 2.32543 15.9355C3.4934 17.7782 6.25422 17.3387 6.8595 15.2138C7.18143 14.0838 6.60665 12.8236 5.52403 12.2857C5.03254 12.0415 4.26825 11.9659 3.76075 12.1112ZM3.61178 12.8722C3.52045 12.9643 3.56778 13.1067 3.68238 13.0844C3.74639 13.0719 3.7987 13.0194 3.7987 12.9677C3.7987 12.8618 3.68145 12.8019 3.61178 12.8722ZM2.72406 13.6506C2.64496 13.8015 2.60867 14.0333 2.60601 14.4036C2.60275 14.8614 2.61904 14.942 2.71854 14.962C2.82011 14.9824 2.83507 14.9273 2.83633 14.5276C2.83733 14.2244 2.88027 13.9754 2.96362 13.7902C3.03282 13.6364 3.07204 13.493 3.05077 13.4715C2.95817 13.3781 2.83001 13.4483 2.72406 13.6506ZM16.6792 13.9279C16.7298 14.4217 17.0033 14.9734 17.4262 15.4345C18.7274 16.8528 20.9868 16.6529 22.04 15.0262C22.3088 14.6111 22.5583 13.8565 22.488 13.6716C22.4526 13.5787 22.1165 13.5667 19.5452 13.5667H16.6423L16.6792 13.9279ZM3.97645 14.6596C3.93723 14.7072 3.87295 14.8914 3.83353 15.0689C3.79412 15.2464 3.71687 15.4794 3.66197 15.5867C3.51141 15.8805 3.62647 16.0488 3.97797 16.0488C4.1506 16.0488 4.35733 16.111 4.5356 16.2164C4.85859 16.4074 5.01473 16.3804 5.06318 16.1253C5.08166 16.0279 5.14408 15.8124 5.20178 15.6463C5.38238 15.1271 5.38929 14.9956 5.23993 14.915C5.16615 14.8751 5.02104 14.8596 4.91755 14.8805C4.78135 14.9079 4.65957 14.8707 4.47711 14.7457C4.19467 14.5523 4.08074 14.5327 3.97645 14.6596ZM4.09782 15.0783C4.09782 15.1717 4.05295 15.3565 3.99812 15.489C3.87022 15.7979 3.86331 15.7804 4.11444 15.7808C4.23322 15.7809 4.42838 15.8413 4.5481 15.9149C4.82023 16.0824 4.82867 16.0818 4.83047 15.8979C4.83127 15.8148 4.89109 15.6153 4.96341 15.4545C5.03573 15.2937 5.09489 15.1545 5.09489 15.1451C5.09489 15.1359 5.02131 15.1425 4.93144 15.1598C4.84077 15.1773 4.63883 15.1283 4.47837 15.0499C4.11298 14.8714 4.09782 14.8725 4.09782 15.0783ZM10.4498 15.4299C10.4293 15.4506 10.4123 15.5605 10.4118 15.6743C10.4106 15.9867 10.2416 16.565 10.019 17.0185C9.595 17.882 8.92822 18.4832 7.88669 18.9413C6.78047 19.4278 6.56397 19.5413 6.22092 19.815C5.82501 20.1309 5.41528 20.7437 5.40285 21.0388C5.39169 21.3033 5.55068 21.3873 6.68701 21.7169C9.53178 22.5419 12.6343 22.7257 15.1382 22.2175C16.3683 21.9679 18.0111 21.4079 18.2817 21.1461C18.4041 21.0276 18.4036 21.0185 18.2615 20.7221C18.0455 20.2719 17.6934 19.8366 17.3553 19.6018C17.1903 19.4872 16.659 19.2212 16.1747 19.0107C14.7457 18.3895 14.1217 17.9005 13.7157 17.0839C13.5149 16.6799 13.3373 16.0245 13.3373 15.687C13.3373 15.4084 13.3206 15.4007 13.0817 15.5705C12.2805 16.1399 11.6093 16.1547 10.8223 15.6202C10.6378 15.4949 10.4702 15.4093 10.4498 15.4299ZM18.2562 16.6991C18.2562 16.8801 18.2921 17.0645 18.336 17.1088C18.4283 17.2019 20.5594 17.2234 20.7012 17.1326C20.809 17.0635 20.8909 16.4513 20.7923 16.4513C20.7537 16.4513 20.5499 16.4966 20.3394 16.552C19.719 16.715 18.9647 16.6637 18.3725 16.4181C18.271 16.3761 18.2562 16.4119 18.2562 16.6991Z" fill="#3B006B"/>
</svg>
