<svg width="18" height="21" viewBox="0 0 18 21" fill="none" xmlns="http://www.w3.org/2000/svg">
<path fill-rule="evenodd" clip-rule="evenodd" d="M6.89309 1.76741L3.42896 3.52513L3.17423 4.08576C2.81127 4.88442 2.82122 5.81491 3.20152 6.62616L3.48364 7.22808L6.09966 8.32899C7.53847 8.9345 8.76185 9.45093 8.81827 9.47669C8.8827 9.50616 8.87624 9.57568 8.80083 9.66364C8.70584 9.77444 8.08384 9.58332 5.82636 8.74969L2.97203 7.69569L2.79988 7.1895C2.69678 6.88601 2.57326 6.69793 2.4915 6.71986C2.41651 6.74 1.905 7.06092 1.35491 7.43303C0.405862 8.07499 0.35467 8.12932 0.35467 8.49322C0.35467 8.73877 0.404118 8.8768 0.492037 8.8768C0.718041 8.8768 0.893366 9.44294 0.944968 10.3393L0.993595 11.1831L0.571543 11.4433C0.214738 11.6632 0.149594 11.7587 0.15021 12.0617L0.15103 12.4201L1.35563 12.7289C2.01826 12.8988 2.98741 13.1458 3.50929 13.2778C4.38827 13.5002 4.45824 13.5382 4.45824 13.7935C4.45824 14.0444 4.42848 14.0625 4.12482 13.9957L3.79141 13.9224L4.12441 14.1537C4.37565 14.328 4.44685 14.4475 4.41422 14.6398C4.39042 14.7801 4.36744 14.9627 4.36324 15.0456C4.35821 15.1462 4.10164 15.0435 3.59105 14.7362C3.17054 14.4832 2.76664 14.2776 2.69339 14.2795C2.62025 14.2813 2.91724 14.4998 3.35356 14.7649C4.31882 15.3515 4.31666 15.3493 4.13949 15.5881C4.01166 15.7602 4.01833 15.7714 4.20176 15.6937C4.31461 15.6459 4.55703 15.5792 4.74036 15.5455C5.05746 15.4871 5.07377 15.5014 5.07377 15.8362C5.07377 16.0299 5.10886 16.1884 5.15174 16.1884C5.21852 16.1884 5.7882 15.6604 5.79384 15.5934C5.87489 14.6367 6.12664 13.2912 6.27683 13.0125C6.48724 12.6218 6.53423 12.6109 7.38203 12.7553C7.66415 12.8034 7.86932 12.8124 7.83814 12.7752C7.77987 12.7063 3.93 11.8001 3.70851 11.8031C3.42362 11.8072 3.91892 12.0169 4.37627 12.0858C4.6469 12.1265 4.88726 12.1935 4.91024 12.2344C4.93333 12.2752 4.861 12.4323 4.74949 12.5833L4.54677 12.8578L3.14315 12.4871C0.873361 11.8875 0.946917 11.9187 1.02201 11.5903C1.11998 11.1622 1.09177 9.88366 0.974616 9.44665C0.917679 9.23428 0.890596 9.03911 0.914294 9.01313C0.937992 8.98703 2.5352 9.31178 4.46347 9.73473C7.82552 10.4722 7.97356 10.5154 8.07122 10.787C8.23588 11.2453 8.28604 12.3844 8.16293 12.8701C7.96832 13.638 7.95601 13.6458 7.17664 13.497C6.79675 13.4244 6.47206 13.3803 6.45503 13.399C6.438 13.4177 6.39378 13.5655 6.35675 13.7273C6.29058 14.0165 6.30587 14.0263 7.21409 14.2723C7.73739 14.4142 8.1973 14.4835 8.27342 14.4321C8.34739 14.3821 9.46971 13.3512 10.7675 12.141C15.5959 7.63888 15.2301 7.96262 15.2301 8.19096C15.2301 8.24676 13.686 9.83518 11.7988 11.7206L8.3675 15.1487L7.36182 14.8389C6.80866 14.6686 6.31818 14.567 6.2717 14.6134C6.22533 14.6596 6.20225 14.866 6.22041 15.0721C6.25067 15.4141 6.32515 15.4888 7.07426 15.9285C7.52565 16.1934 7.96145 16.3835 8.0428 16.3509C8.16591 16.3015 15.9705 11.0333 16.764 10.464C17.0012 10.2938 17.0113 10.2954 16.9429 10.491C16.9029 10.6052 16.8202 11.0525 16.759 11.4851C16.6535 12.2306 16.7226 13.1751 16.9236 13.7362C17.0031 13.9584 17.2646 13.7668 11.6803 17.5758L7.77156 20.242L4.49907 18.1791L1.22668 16.1163L0.924758 15.4618C0.611245 14.7818 0.519223 13.9058 0.69065 13.2331C0.757538 12.9704 0.733326 12.9056 0.536766 12.8229C0.227562 12.6929 0.171446 12.7685 0.0481335 13.4817C-0.0892333 14.2759 0.0740887 15.3042 0.45295 16.0303C0.731275 16.5637 0.856536 16.6554 4.20289 18.7756C6.10695 19.982 7.69667 20.9829 7.73565 20.9998C7.77463 21.0167 9.53455 19.8489 11.6466 18.4044C13.7586 16.9601 16.0049 15.4277 16.6385 14.9991C17.6497 14.3152 17.7908 14.1822 17.7927 13.9119C17.7946 13.6393 17.7479 13.5957 17.3867 13.5324C17.0208 13.4682 16.9717 13.4208 16.9123 13.0732C16.8286 12.5839 16.921 11.0829 17.0667 10.5641C17.145 10.2856 17.2978 10.0954 17.5887 9.91392C17.9125 9.71201 18 9.59154 18 9.34778C18 9.06409 17.8965 8.98197 16.7689 8.37061C16.0918 8.00356 15.5395 7.67623 15.5415 7.64315C15.5435 7.6102 15.6111 7.45665 15.6917 7.30198C15.7724 7.14731 15.84 6.98027 15.842 6.93066C15.844 6.88117 14.9454 7.35328 13.8451 7.97971C12.7449 8.60627 11.8447 9.09693 11.8447 9.07027C11.8447 9.0435 13.0915 8.24248 14.6155 7.29006L17.3863 5.55844L17.3597 5.17126C17.337 4.83999 17.286 4.7707 17.0063 4.69184C16.6199 4.58284 16.526 4.3365 16.617 3.67091C16.6763 3.23773 16.7352 3.15449 17.1739 2.88407C17.5861 2.63007 17.6597 2.5348 17.6351 2.28845C17.6189 2.12715 17.5906 1.98316 17.572 1.96843C17.4535 1.87383 10.7806 -0.00773763 10.5915 2.39461e-05C10.4626 0.00531082 8.79827 0.800592 6.89309 1.76741ZM13.3399 5.17531C11.7077 6.15934 10.3123 6.96452 10.2388 6.96452C10.1654 6.96452 8.7083 6.3824 7.0008 5.67093C5.29331 4.95945 3.84342 4.37733 3.77889 4.37733C3.49349 4.37733 3.44855 5.70872 3.71467 6.2833C3.88712 6.65608 4.01084 6.71919 6.96613 7.94248C8.65588 8.64192 10.0992 9.21426 10.1736 9.21426C10.3167 9.21426 16.2247 5.55709 16.424 5.34516C16.5457 5.21569 16.4956 3.35483 16.3711 3.37552C16.336 3.38137 14.972 4.19128 13.3399 5.17531ZM13.999 5.51794C13.068 6.0761 11.8304 6.81323 11.2487 7.15586L10.191 7.77893L9.32342 7.4111C8.84618 7.20884 8.43151 7.06992 8.40197 7.10232C8.37242 7.13472 8.76913 7.34102 9.28362 7.5607L10.219 7.96014L12.9554 6.32492C16.3605 4.29015 16.0346 4.49589 15.8456 4.49983C15.761 4.50151 14.93 4.95967 13.999 5.51794ZM4.15047 5.95079C4.15047 6.05271 9.91752 8.44012 9.98502 8.36611C10.011 8.33765 10.013 8.29783 9.98953 8.27758C9.8417 8.15013 4.15047 5.88229 4.15047 5.95079ZM1.68833 10.0848C1.68833 10.1912 7.51724 11.4094 7.59869 11.3201C7.66804 11.2441 7.49118 11.2027 4.61212 10.6215C3.20152 10.3366 1.96655 10.0773 1.86786 10.0451C1.76917 10.0129 1.68833 10.0308 1.68833 10.0848ZM13.3322 14.2929C11.9216 15.2176 10.6116 16.0749 10.4211 16.1982C10.2306 16.3216 10.0988 16.4488 10.128 16.481C10.1704 16.5274 15.7776 12.926 15.9395 12.7484C15.9631 12.7225 15.9632 12.6812 15.9397 12.6566C15.9162 12.6319 14.7428 13.3683 13.3322 14.2929ZM12.0066 16.1938L7.71441 19.0021L6.17907 18.0373C5.33465 17.5067 4.62238 17.0959 4.59622 17.1244C4.52122 17.2068 7.51406 19.1131 7.71821 19.1131C7.80038 19.1131 16.16 13.7045 16.3501 13.5283C16.3736 13.5065 16.3716 13.4656 16.3458 13.4372C16.3199 13.4089 14.3673 14.6494 12.0066 16.1938ZM9.33799 16.0818L7.70344 17.1938L6.74761 16.6272C6.22195 16.3155 5.7923 16.102 5.79292 16.1527C5.79477 16.3224 7.6424 17.3357 7.81659 17.2625C7.95929 17.2024 10.8929 15.2239 11.0154 15.1051C11.0389 15.0822 11.0389 15.0425 11.0154 15.0167C10.9919 14.9909 10.2371 15.4702 9.33799 16.0818Z" fill="#3B006B"/>
</svg>
