<svg width="40" height="40" viewBox="0 0 40 40" fill="none" xmlns="http://www.w3.org/2000/svg">
<circle cx="20" cy="20" r="19.5" stroke="#3B006B"/>
<path d="M16.3844 10.4792C16.9095 10.3209 17.473 10.3472 17.9811 10.5537C18.4891 10.7603 18.9111 11.1346 19.1768 11.6144L19.2656 11.7932L20.06 13.5584C20.3006 14.0943 20.3787 14.689 20.2844 15.2688C20.1901 15.8486 19.9276 16.388 19.5296 16.82L19.37 16.9784L18.1184 18.146C17.8928 18.3596 18.062 19.1864 18.878 20.6C19.6124 21.872 20.21 22.466 20.504 22.4984H20.5556L20.6192 22.4864L23.0792 21.734C23.4098 21.6326 23.7627 21.6286 24.0955 21.7224C24.4283 21.8163 24.7271 22.004 24.956 22.2632L25.0652 22.4012L26.6936 24.6572C27.0128 25.0994 27.1718 25.6371 27.1445 26.1817C27.1173 26.7264 26.9053 27.2455 26.5436 27.6536L26.3972 27.8048L25.7468 28.4216C25.1628 28.9747 24.4322 29.3484 23.6419 29.4984C22.8516 29.6484 22.0349 29.5683 21.2888 29.2676C18.9668 28.3316 16.8572 26.1932 14.9408 22.874C13.0208 19.5464 12.2228 16.646 12.5792 14.162C12.6871 13.4111 12.9963 12.7035 13.474 12.1142C13.9517 11.5249 14.5801 11.076 15.2924 10.8152L15.524 10.7384L16.3844 10.4792Z" fill="#3B006B"/>
</svg>
