<svg width="21" height="11" viewBox="0 0 21 11" fill="none" xmlns="http://www.w3.org/2000/svg">
<path fill-rule="evenodd" clip-rule="evenodd" d="M0.337776 0.0945444C0.252842 0.145721 0.142127 0.263691 0.0916919 0.356735C0.00277346 0.520809 7.87841e-06 0.641912 7.87841e-06 4.38935C7.87841e-06 8.51599 -0.00486697 8.42559 0.227905 8.62081C0.323527 8.70101 0.32812 8.74266 0.32812 9.53263C0.32812 9.98793 0.340917 10.3918 0.356572 10.4302C0.3824 10.4936 1.31536 10.5 10.4508 10.5H20.5166L20.6711 10.4007C20.7561 10.3461 20.8649 10.232 20.9128 10.1471L21 9.99265L14.5779 9.98144L8.15594 9.97028V9.39688C8.15594 8.91666 8.16738 8.82353 8.22625 8.82353C8.27946 8.82353 8.29656 8.87762 8.29656 9.04553C8.29656 9.33935 8.39669 9.5516 8.58671 9.66062C8.73998 9.74859 8.80809 9.74969 14.215 9.74982L19.6881 9.75L19.8632 9.59899L20.0383 9.44797L20.0511 6.66093C20.0636 3.9229 20.0621 3.87128 19.9683 3.72838C19.7743 3.43297 19.8687 3.44118 16.6681 3.44118H13.7807L13.7806 1.97426C13.7806 0.337368 13.774 0.299206 13.4574 0.100147L13.2981 0L6.89515 0.000749925L0.492176 0.00149985L0.337776 0.0945444ZM0.536284 0.459706C0.447694 0.520721 0.445303 0.604677 0.445303 3.62515V6.72794L0.902317 6.74056L1.35933 6.75318V6.09666C1.35933 5.51669 1.36931 5.43163 1.44506 5.36713C1.52151 5.30201 1.71538 5.29412 3.24073 5.29412C4.56321 5.29412 4.96941 5.307 5.03335 5.35103C5.10736 5.40194 5.11561 5.49062 5.11153 6.18927L5.10698 6.97059H6.7018H8.29656V5.46918C8.29656 3.84543 8.3042 3.78887 8.55207 3.57353L8.679 3.46324L11.019 3.45066L13.3589 3.43804V2.00581C13.3589 0.632338 13.355 0.569912 13.2651 0.485294C13.1723 0.397941 13.1089 0.397059 6.89932 0.397059C1.55498 0.397059 0.613813 0.406323 0.536284 0.459706ZM14.062 3.61473C14.062 3.73628 14.0765 3.75 14.2057 3.75C14.3349 3.75 14.3479 3.73769 14.3346 3.62868C14.323 3.53338 14.2921 3.50435 14.1909 3.49341C14.075 3.48084 14.062 3.49315 14.062 3.61473ZM8.74913 3.87481C8.67872 3.948 8.67155 4.20278 8.67155 6.62334C8.67155 8.63951 8.68528 9.3041 8.7278 9.34412C8.80945 9.42097 19.5489 9.42097 19.6305 9.34412C19.673 9.3041 19.6868 8.63696 19.6868 6.61196C19.6868 4.23516 19.6785 3.92493 19.6131 3.86343C19.547 3.80122 18.99 3.79412 14.1831 3.79412C9.05343 3.79412 8.82342 3.79752 8.74913 3.87481ZM2.90615 5.53676C2.90615 5.58971 2.97646 5.60294 3.2577 5.60294C3.53893 5.60294 3.60924 5.58971 3.60924 5.53676C3.60924 5.48382 3.53893 5.47059 3.2577 5.47059C2.97646 5.47059 2.90615 5.48382 2.90615 5.53676ZM1.49995 6.26246V6.74656L1.91009 6.75931L2.32023 6.77206L2.33256 8.32721L2.34489 9.88235H3.68063H5.01638L5.00419 7.84191L4.992 5.80147L3.24598 5.78991L1.49995 5.77835V6.26246ZM1.11062 6.86643C1.04373 6.92938 1.1432 6.97059 1.3621 6.97059C1.5367 6.97059 1.5937 6.95431 1.5937 6.90441C1.5937 6.85474 1.53726 6.83824 1.36716 6.83824C1.24252 6.83824 1.12712 6.85094 1.11062 6.86643ZM0.421867 8.58088V10.0588H1.33589H2.24992V8.58088V7.10294H1.33589H0.421867V8.58088ZM6.48726 7.51765C6.34687 7.64978 6.32789 7.695 6.32789 7.89706C6.32789 8.09912 6.34687 8.14434 6.48726 8.27647C6.62619 8.40724 6.67681 8.42647 6.88207 8.42647C7.1657 8.42647 7.37855 8.28424 7.44769 8.04865C7.50872 7.84063 7.43583 7.61974 7.26039 7.48076C7.14855 7.39222 7.06642 7.36765 6.88207 7.36765C6.67681 7.36765 6.62619 7.38688 6.48726 7.51765ZM5.14031 8.85596C5.12705 8.87616 5.11542 9.19575 5.11453 9.56616L5.11289 10.2396L5.38058 10.2264L5.64823 10.2132V9.52941V8.84559L5.40632 8.8324C5.27329 8.82512 5.15358 8.83575 5.14031 8.85596ZM3.09748 10.0765C3.02281 10.1612 3.04709 10.2783 3.15223 10.3406C3.27246 10.4119 3.39831 10.3217 3.39831 10.1643C3.39831 10.06 3.37628 10.0343 3.2771 10.0235C3.21045 10.0162 3.12964 10.0401 3.09748 10.0765ZM9.14431 10.1581C9.09078 10.2915 9.16466 10.4118 9.30026 10.4118C9.46319 10.4118 9.5417 10.303 9.47627 10.1678C9.40624 10.0231 9.20084 10.0171 9.14431 10.1581ZM9.72104 10.1218C9.66503 10.2591 9.72362 10.3894 9.84741 10.403C10.017 10.4215 10.1077 10.3102 10.0387 10.1678C9.97955 10.0455 9.76482 10.0144 9.72104 10.1218ZM10.2652 10.1471C10.2296 10.2098 10.2296 10.2608 10.2652 10.3235C10.3299 10.4373 10.5276 10.4391 10.5917 10.3264C10.6545 10.2161 10.6537 10.2102 10.5666 10.1281C10.465 10.0326 10.3254 10.0414 10.2652 10.1471ZM1.23568 10.2132C1.19452 10.3141 1.25213 10.4118 1.35286 10.4118C1.40245 10.4118 1.45519 10.382 1.47005 10.3456C1.51115 10.2447 1.45355 10.1471 1.35286 10.1471C1.30322 10.1471 1.25049 10.1768 1.23568 10.2132Z" fill="#3B006B"/>
</svg>
