<svg width="21" height="21" viewBox="0 0 21 21" fill="none" xmlns="http://www.w3.org/2000/svg">
<path fill-rule="evenodd" clip-rule="evenodd" d="M7.24217 0.0710155C8.5437 0.336739 9.74448 1.61074 10.0126 3.01054L10.1039 3.48737L11.1164 3.51173L12.1288 3.53618L12.1009 4.46539C12.0774 5.24895 12.0393 5.46942 11.8579 5.87151C11.3755 6.941 10.4841 7.88746 9.52738 8.34617C9.0068 8.59568 8.21165 8.81918 7.84417 8.81918H7.57249V8.29649V7.7738L6.47832 7.79799L5.38415 7.82218L5.35938 8.32068L5.3346 8.81918H5.06705C4.30674 8.81918 2.99927 8.21751 2.27613 7.53495C1.80246 7.08786 1.32524 6.3753 1.06421 5.72543C0.918783 5.36347 0.883604 5.10581 0.883604 4.40331V3.53072H1.86315H2.8427L2.93519 3.0473C3.32381 1.01583 5.27275 -0.330995 7.24217 0.0710155ZM7.18288 0.932689C7.6364 1.05216 7.95524 1.2441 8.37887 1.65244C8.78227 2.04127 9.2239 2.89827 9.22398 3.2923L9.22406 3.53072H6.44735H3.67064L3.72324 3.25441C3.80665 2.81686 4.13837 2.12078 4.42929 1.77295C4.83104 1.29257 5.63007 0.913096 6.31242 0.878591C6.61936 0.862986 7.01112 0.887347 7.18288 0.932689ZM19.5216 7.02024C20.1535 7.74927 20.7127 8.9194 20.912 9.92994C21.065 10.7054 21.0242 11.2905 20.7445 12.3304C20.3508 13.7939 20.2801 14.5319 20.2175 17.8337L20.1658 20.5626L19.9403 20.6458C19.5439 20.7918 19.5649 21.0525 19.6276 16.7519C19.6676 14.006 19.6619 13.976 19.0779 13.8841C18.2931 13.7606 17.4665 14.1857 16.7695 15.0714C16.5611 15.3362 16.0119 16.3444 15.4997 17.4021C14.492 19.4833 13.9302 20.3419 13.3173 20.7373L12.9101 21L10.0555 20.991C5.61099 20.9769 3.39309 20.6314 3.29433 19.9375C3.20836 19.334 6.63571 17.9317 9.28897 17.4848C11.0217 17.193 11.3884 16.9058 12.9096 14.6491C13.733 13.4275 14.8923 11.8685 16.414 9.93583C16.8878 9.33407 17.4712 8.59117 17.7104 8.28496C18.2098 7.64567 19.068 6.82517 19.2375 6.82517C19.3007 6.82517 19.4286 6.91291 19.5216 7.02024ZM12.3621 6.9097C12.3621 6.95617 12.4921 7.71519 12.6511 8.59637C12.81 9.47764 12.9401 10.4273 12.9401 10.7069C12.9401 12.3911 11.7827 13.8431 10.1579 14.1977C9.87784 14.2588 8.50282 14.282 6.19408 14.2645L2.65905 14.2377L2.03971 13.9267C0.92828 13.3686 0.24527 12.4237 0.0484028 11.1722C-0.0408649 10.6045 -0.0269089 10.4546 0.264759 8.84701C0.666588 6.63305 0.630335 6.72573 0.921095 7.16623C1.35992 7.83102 2.23534 8.6105 2.96302 8.9846C3.67386 9.34994 4.44927 9.5985 4.88537 9.60075C5.26309 9.60275 5.33055 9.68935 5.35855 10.2082L5.38415 10.6832H6.49434H7.60453L7.58289 10.1928C7.55861 9.64314 7.50659 9.68259 8.42206 9.55584C9.7183 9.37647 11.3427 8.31357 12.0064 7.21071C12.2283 6.84199 12.3621 6.72877 12.3621 6.9097ZM6.82928 9.25266V9.85954H6.47832H6.12736V9.25266V8.64579H6.47832H6.82928V9.25266ZM16.8894 10.5792C15.1047 13.5243 12.5427 17.5354 12.0606 18.139C11.4988 18.8424 11.0256 19.1374 10.4659 19.1332C9.98486 19.1295 9.36767 18.9041 8.80944 18.5279L8.36789 18.2305L8.65146 18.169C8.80745 18.1352 9.21374 18.0818 9.55438 18.0504C11.14 17.9043 11.4373 17.6653 13.2305 15.0968C14.0364 13.9424 14.8975 12.7897 16.9484 10.1196C17.9057 8.87346 17.9009 8.91013 16.8894 10.5792Z" fill="#3B006B"/>
</svg>
