<svg width="21" height="18" viewBox="0 0 21 18" fill="none" xmlns="http://www.w3.org/2000/svg">
<path fill-rule="evenodd" clip-rule="evenodd" d="M19.3798 0.083181C19.3053 0.138349 18.8738 0.842966 18.421 1.64891L17.5976 3.11426L14.7711 3.151L11.9447 3.18773L11.9026 3.72602C11.8712 4.12886 11.9239 4.31771 12.1123 4.47707C12.3261 4.65773 12.3869 4.99707 12.5161 6.73184C12.6754 8.87123 12.7165 8.98539 13.327 8.98921C13.9266 8.9929 15.6655 9.52082 16.3367 9.90303C16.6956 10.1075 17.1043 10.4436 17.2449 10.6503C17.5481 11.0958 17.7477 12.6782 17.5006 12.6782C17.4156 12.6782 17.3752 12.6292 17.4105 12.5692C17.4459 12.5093 17.4226 12.3718 17.3586 12.2635C17.2611 12.0985 16.507 12.0648 12.7008 12.0557C10.203 12.0497 8.01249 12.0838 7.83302 12.1316C7.59924 12.1937 7.49469 12.326 7.46414 12.5979C7.42316 12.9648 7.43621 12.9737 7.85573 12.8626C8.09447 12.7995 8.55419 12.7696 8.87724 12.7963C9.2003 12.8231 9.72894 12.8399 10.052 12.8337C10.3751 12.8275 10.9331 12.8257 11.292 12.8296C11.651 12.8336 12.209 12.8336 12.532 12.8296C12.8551 12.8257 13.4131 12.8257 13.7721 12.8296C14.7525 12.8404 15.4048 12.8336 16.0563 12.8055C16.3794 12.7914 16.8493 12.8105 17.1005 12.8478C17.5928 12.9209 17.5419 12.804 17.8361 14.5378C17.8781 14.7862 17.829 15.1274 17.7181 15.3571C17.6135 15.5736 17.5527 15.8229 17.583 15.9113C17.6988 16.2492 17.3278 17.2321 16.9472 17.5959L16.5514 17.974L18.0552 17.9942C18.8823 18.0053 19.5865 17.9658 19.6201 17.9066C19.6538 17.8475 19.9081 14.8034 20.1852 11.142C20.5731 6.01726 20.7284 4.48499 20.8599 4.48499C20.9822 4.48499 21.0194 4.30091 20.9909 3.83636L20.9511 3.18773L19.6692 3.14854C18.9641 3.12696 18.4061 3.06551 18.4292 3.01198C18.607 2.59891 19.4957 1.05776 19.5921 0.995496C19.6585 0.952482 19.8908 1.04984 20.1082 1.2118C20.5213 1.51945 20.8859 1.49296 20.8859 1.1554C20.8859 1.0467 20.599 0.737546 20.2484 0.468262C19.5476 -0.0698958 19.572 -0.059108 19.3798 0.083181ZM12.4015 3.87241C12.4015 4.05348 12.9084 4.07478 16.4697 4.0431C19.5833 4.01552 20.5507 3.96704 20.5922 3.83636C20.635 3.70226 19.764 3.66567 16.524 3.66567C12.9294 3.66567 12.4015 3.69216 12.4015 3.87241ZM5.92077 4.7581C5.86008 5.07531 5.77249 5.16776 5.53245 5.16776C5.24751 5.16776 5.22245 5.22293 5.22245 5.85053C5.22245 6.48345 5.19921 6.53329 4.90357 6.53329C4.62189 6.53329 4.58012 6.46584 4.54461 5.95294C4.50559 5.38761 4.49358 5.37368 4.08032 5.41547C3.72555 5.45138 3.65611 5.41219 3.65611 5.1765C3.65611 4.69897 2.65313 4.86393 2.58656 5.35238C2.56163 5.53604 2.43684 5.66195 2.25293 5.68939C2.0681 5.71684 1.95924 5.82745 1.95924 5.9879C1.95924 6.1758 1.8475 6.25418 1.53502 6.28572C1.16197 6.32327 1.10584 6.38199 1.06995 6.77226C1.03274 7.17592 0.98954 7.21606 0.592603 7.21606C0.220597 7.21606 0.166297 7.25635 0.224512 7.48917C0.262757 7.64184 0.228559 7.76228 0.147109 7.76228C0.0668341 7.76228 0.000786564 7.93119 3.39292e-06 8.1378C-0.00247665 8.9137 1.35541 17.8032 1.49116 17.8993C1.56909 17.9545 3.1601 17.9986 5.02666 17.9974L8.4204 17.9952L8.05779 17.7123C7.59102 17.3479 7.3109 16.7744 7.3109 16.1827C7.3109 15.9248 7.22319 15.5376 7.11589 15.3224C6.86959 14.8284 6.86959 14.4881 7.11589 13.994C7.24838 13.7284 7.3109 13.193 7.3109 12.3259C7.3109 11.0807 7.32135 11.0366 7.73421 10.5447C8.16861 10.0272 9.149 9.46647 9.87265 9.32186C10.2437 9.24771 10.2883 9.18257 10.3642 8.60372C10.4281 8.11773 10.4009 7.93119 10.2499 7.81553C10.141 7.7321 10.052 7.47101 10.052 7.23518C10.052 6.87045 10.004 6.8064 9.73025 6.8064C9.54216 6.8064 9.35054 6.69306 9.26883 6.53329C9.17041 6.34089 8.9955 6.26019 8.67688 6.26019C8.4281 6.26019 8.2246 6.32164 8.2246 6.39674C8.2246 6.47185 8.09916 6.53329 7.94579 6.53329C7.69087 6.53329 7.67377 6.48127 7.74674 5.9244C7.82571 5.32165 7.82218 5.31455 7.39705 5.23112C7.00977 5.15506 6.97296 5.10754 7.02348 4.74758C7.07765 4.36127 7.06212 4.34844 6.53922 4.34844C6.04347 4.34844 5.9927 4.38216 5.92077 4.7581ZM6.18288 4.99707C6.22739 5.27878 6.26446 6.39497 6.26524 7.47784C6.26602 8.56057 6.30127 9.41035 6.34343 9.3661C6.40425 9.30247 6.77404 5.36603 6.78592 4.65568C6.78748 4.5616 6.63464 4.48499 6.44537 4.48499C6.12127 4.48499 6.10652 4.51367 6.18288 4.99707ZM2.85753 5.27017C2.84892 5.32643 2.8527 5.43035 2.86576 5.50081C2.87881 5.57141 2.9399 6.42514 3.00151 7.39795C3.07865 8.61506 3.1678 9.20196 3.28697 9.27925C3.42585 9.36938 3.46841 9.11443 3.50091 7.9966C3.55847 6.0163 3.44556 5.16776 3.12459 5.16776C2.98623 5.16776 2.86602 5.21378 2.85753 5.27017ZM5.44552 5.38952C5.39461 5.44278 5.35298 6.39783 5.35298 7.51197V9.53748H5.6793H6.00562V7.55745C6.00562 6.46843 6.02024 5.53126 6.03825 5.475C6.08133 5.33968 5.56443 5.26526 5.44552 5.38952ZM6.87168 6.29433C6.62237 9.02376 6.61714 9.40092 6.82951 9.40092C7.13782 9.40092 7.19734 9.21821 7.33348 7.85391C7.40227 7.16513 7.48986 6.34048 7.52836 6.02122C7.59415 5.47459 7.5794 5.44087 7.27396 5.44087C6.97153 5.44087 6.94451 5.49835 6.87168 6.29433ZM3.65819 5.81639C3.65937 5.94789 3.71837 6.78933 3.78938 7.68635C3.90933 9.20046 4.0071 9.52819 4.34138 9.53543C4.46173 9.53802 4.46682 8.48383 4.35443 6.82743C4.27338 5.63149 4.25641 5.57742 3.96285 5.57742C3.757 5.57742 3.65676 5.65594 3.65819 5.81639ZM2.30736 5.94161C2.19797 6.0559 2.19719 7.00782 2.3054 8.20608C2.3751 8.97911 2.42744 9.12782 2.62911 9.12782C2.848 9.12782 2.86341 9.03305 2.79984 8.06952C2.66252 5.98339 2.58538 5.65061 2.30736 5.94161ZM1.28453 7.56468C1.32448 8.51906 1.35215 8.60645 1.65197 8.7258C1.83027 8.79667 1.99082 8.85471 2.00871 8.85471C2.05752 8.85471 1.95558 7.19326 1.8851 6.84054C1.84372 6.63312 1.72924 6.53316 1.53254 6.53302C1.25308 6.53261 1.24303 6.57453 1.28453 7.56468ZM8.44807 6.63571C8.41883 6.69197 8.38306 7.10682 8.36858 7.55745C8.35409 8.00807 8.3118 8.48424 8.2746 8.61574C8.23413 8.75857 8.27616 8.85389 8.37902 8.85266C8.77321 8.84788 8.89774 8.58802 8.99002 7.57793C9.08322 6.5576 9.07865 6.53329 8.79319 6.53329C8.6325 6.53329 8.47717 6.57945 8.44807 6.63571ZM4.66209 6.76475C4.62763 6.82525 4.63011 7.47388 4.6677 8.20608C4.72879 9.39764 4.76194 9.53748 4.98371 9.53748C5.21344 9.53748 5.22884 9.4352 5.19438 8.13944C5.16319 6.96562 5.12246 6.73444 4.9409 6.69798C4.82199 6.67422 4.69655 6.70426 4.66209 6.76475ZM7.65354 7.23313C7.60864 7.46787 7.57196 7.99019 7.57196 8.39384C7.57196 8.9619 7.61712 9.12782 7.7718 9.12782C8.02411 9.12782 8.05687 9.00956 8.14093 7.79642C8.20267 6.90445 8.18597 6.8064 7.97229 6.8064C7.81109 6.8064 7.70902 6.94309 7.65354 7.23313ZM9.2674 7.18192C9.26661 7.31343 9.22954 7.6514 9.18503 7.93297C9.14052 8.21468 9.15592 8.44314 9.2191 8.44068C9.50535 8.42989 9.76536 8.0515 9.85112 7.52099C9.94079 6.96508 9.93152 6.94296 9.60664 6.94296C9.37247 6.94296 9.26844 7.01628 9.2674 7.18192ZM0.621319 7.4467C0.291343 7.53696 0.340422 7.83588 0.739186 8.16388C0.929627 8.32065 1.10401 8.42948 1.12673 8.40558C1.19943 8.32952 1.0146 7.35193 0.930541 7.36846C0.886161 7.3772 0.746887 7.41243 0.621319 7.4467ZM10.5741 9.41157C9.14522 9.67594 7.57196 10.6998 7.57196 11.3654V11.6541L12.4018 11.6423C15.0582 11.6359 17.2653 11.5956 17.3063 11.5526C17.4587 11.3931 16.9465 10.6178 16.4769 10.2971C15.5603 9.67171 14.4212 9.37033 12.7931 9.32268C11.9675 9.29851 10.969 9.33852 10.5741 9.41157ZM11.6183 9.81058C11.6183 9.88569 11.6771 9.94714 11.7489 9.94714C11.8207 9.94714 11.8794 9.88569 11.8794 9.81058C11.8794 9.73548 11.8207 9.67403 11.7489 9.67403C11.6771 9.67403 11.6183 9.73548 11.6183 9.81058ZM13.0542 9.81058C13.0542 9.88569 13.1423 9.94714 13.2499 9.94714C13.3576 9.94714 13.4457 9.88569 13.4457 9.81058C13.4457 9.73548 13.3576 9.67403 13.2499 9.67403C13.1423 9.67403 13.0542 9.73548 13.0542 9.81058ZM9.79094 10.0837C9.79094 10.1588 9.84968 10.2202 9.92147 10.2202C9.99326 10.2202 10.052 10.1588 10.052 10.0837C10.052 10.0086 9.99326 9.94714 9.92147 9.94714C9.84968 9.94714 9.79094 10.0086 9.79094 10.0837ZM14.6205 10.0837C14.6205 10.1588 14.7086 10.2202 14.8163 10.2202C14.924 10.2202 15.0121 10.1588 15.0121 10.0837C15.0121 10.0086 14.924 9.94714 14.8163 9.94714C14.7086 9.94714 14.6205 10.0086 14.6205 10.0837ZM10.7046 10.6299C10.7046 10.705 10.7928 10.7665 10.9004 10.7665C11.0081 10.7665 11.0962 10.705 11.0962 10.6299C11.0962 10.5548 11.0081 10.4934 10.9004 10.4934C10.7928 10.4934 10.7046 10.5548 10.7046 10.6299ZM8.68145 10.7665C8.63707 10.8416 8.69242 10.903 8.80428 10.903C8.91614 10.903 9.00777 10.8416 9.00777 10.7665C9.00777 10.6914 8.95256 10.6299 8.88495 10.6299C8.81733 10.6299 8.72583 10.6914 8.68145 10.7665ZM12.532 10.7665C12.532 10.8416 12.5908 10.903 12.6626 10.903C12.7344 10.903 12.7931 10.8416 12.7931 10.7665C12.7931 10.6914 12.7344 10.6299 12.6626 10.6299C12.5908 10.6299 12.532 10.6914 12.532 10.7665ZM14.04 10.7549C13.998 10.826 14.0193 10.9201 14.0873 10.9641C14.1553 11.008 14.2452 10.9858 14.2873 10.9146C14.3293 10.8435 14.308 10.7494 14.24 10.7054C14.172 10.6614 14.0821 10.6837 14.04 10.7549ZM15.7953 10.903C15.7953 10.9781 15.854 11.0396 15.9258 11.0396C15.9976 11.0396 16.0563 10.9781 16.0563 10.903C16.0563 10.8279 15.9976 10.7665 15.9258 10.7665C15.854 10.7665 15.7953 10.8279 15.7953 10.903ZM7.46493 13.5317L7.5067 13.8389L12.4341 13.8747L17.3616 13.9105V13.5674V13.2244H12.3924H7.42329L7.46493 13.5317ZM7.38544 14.2583C7.27266 14.3764 7.18038 14.5871 7.18038 14.7265C7.18038 14.8659 7.27266 15.0766 7.38544 15.1948C7.56465 15.3821 8.20646 15.4093 12.4499 15.4093C16.0555 15.4093 17.3498 15.367 17.466 15.2454C17.7142 14.9858 17.6563 14.3453 17.3702 14.1851C17.2094 14.0951 15.3881 14.0437 12.3541 14.0437C8.19771 14.0437 7.56452 14.0711 7.38544 14.2583ZM7.44143 15.8189C7.44143 15.8941 7.67991 15.9555 7.97125 15.9555C8.29117 15.9555 8.46908 15.9014 8.4204 15.8189C8.37602 15.7438 8.13767 15.6824 7.89058 15.6824C7.64349 15.6824 7.44143 15.7438 7.44143 15.8189ZM11.1615 15.8189C11.1101 15.9059 11.489 15.9555 12.2057 15.9555C12.9225 15.9555 13.3014 15.9059 13.2499 15.8189C13.2056 15.7438 12.7357 15.6824 12.2057 15.6824C11.6758 15.6824 11.2059 15.7438 11.1615 15.8189ZM15.2079 15.8189C15.1564 15.9059 15.5329 15.9555 16.2444 15.9555C16.9021 15.9555 17.3616 15.8994 17.3616 15.8189C17.3616 15.7393 16.929 15.6824 16.3251 15.6824C15.7549 15.6824 15.2523 15.7438 15.2079 15.8189ZM7.57796 16.6601C7.73904 17.2478 8.17735 17.7041 8.73706 17.8667C8.99368 17.9413 10.7014 18.0012 12.532 18C15.4898 17.9981 15.9198 17.9697 16.3926 17.745C16.8856 17.5107 17.3616 16.8395 17.3616 16.3787C17.3616 16.1291 14.8216 16.1799 14.6205 16.4334C14.5311 16.5461 14.3549 16.6383 14.2289 16.6383C14.103 16.6383 13.9267 16.5461 13.8373 16.4334C13.7106 16.2737 13.3533 16.2286 12.2142 16.2286C10.7616 16.2286 10.7514 16.2309 10.3783 16.6383C10.172 16.8636 9.90764 17.0479 9.79094 17.0479C9.67425 17.0479 9.40993 16.8636 9.20357 16.6383C8.88012 16.2851 8.73406 16.2286 8.14407 16.2286H7.45971L7.57796 16.6601Z" fill="#3B006B"/>
</svg>
