<svg width="14" height="12" viewBox="0 0 14 12" fill="none" xmlns="http://www.w3.org/2000/svg">
<path fill-rule="evenodd" clip-rule="evenodd" d="M7.50203 0.864629V1.72926H10.4651H13.4281V0.864629V0H10.4651H7.50203V0.864629ZM4.82345 1.03787C4.77066 1.07046 4.27012 2.74962 4.26974 2.8952C4.26969 2.91679 4.69184 2.9345 5.20789 2.9345H6.14615L5.94208 2.18777C5.82986 1.77705 5.70972 1.34086 5.67514 1.21834L5.61232 0.995633L5.25072 0.996419C5.05188 0.996891 4.8596 1.01555 4.82345 1.03787ZM7.50203 2.04367C7.50203 2.14721 7.53797 2.14847 10.4651 2.14847C13.3922 2.14847 13.4281 2.14721 13.4281 2.04367C13.4281 1.94012 13.3922 1.93886 10.4651 1.93886C7.53797 1.93886 7.50203 1.94012 7.50203 2.04367ZM7.50203 3.19651V3.98253H8.98355C9.90392 3.98253 10.4651 3.9633 10.4651 3.93176C10.4651 3.90383 10.4143 3.78624 10.3523 3.67048C10.2902 3.55472 10.2262 3.31761 10.21 3.14363L10.1805 2.82723L11.1444 2.84154L12.1082 2.8559L12.1023 3.15207C12.098 3.36702 12.0574 3.51605 11.9541 3.69579C11.8759 3.83193 11.8119 3.95214 11.8119 3.96293C11.8119 3.97373 12.1755 3.98253 12.62 3.98253H13.4281V3.19651V2.41048H10.4651H7.50203V3.19651ZM10.4112 3.08337C10.4112 3.20945 10.5806 3.64664 10.69 3.803C10.8098 3.9741 10.8297 3.98185 11.1492 3.98217C11.4669 3.98253 11.4901 3.97373 11.6251 3.80148C11.7745 3.61106 11.9389 3.16449 11.8888 3.08562C11.8513 3.02652 10.4112 3.02437 10.4112 3.08337ZM4.97947 3.27904C5.0146 3.56646 5.37404 3.58386 5.37404 3.29811C5.37404 3.19415 5.34247 3.17235 5.16803 3.15579C4.97144 3.13719 4.96288 3.14279 4.97947 3.27904ZM2.85266 3.46355C2.20963 3.61074 1.7147 3.98431 1.4359 4.53301C1.25456 4.88997 1.23549 4.97172 1.19573 5.56512C1.15829 6.12362 0.957614 7.06433 0.854555 7.16458C0.840601 7.17815 0.800359 7.09567 0.765126 6.98128C0.707319 6.79347 0.715723 6.73829 0.852023 6.41282C1.06234 5.91055 1.09849 5.18882 0.934503 4.76542C0.721757 4.21603 0.636153 4.19156 0.351863 4.59888C0.106524 4.95045 0.0034647 5.26475 0.00039392 5.67039C-0.00224587 6.0295 -0.00246091 6.02898 0.378154 6.73362C0.747778 7.41789 0.811887 7.61282 0.765987 7.91266C0.74169 8.07118 0.720087 8.59583 0.717932 9.0786L0.714 9.95633H0.847229H0.980457L0.948833 9.47162C0.893074 8.61773 1.04408 7.38786 1.31884 6.4581C1.42464 6.09993 1.44484 6.07116 1.66513 5.96416C2.01493 5.79422 2.45416 5.388 2.73953 4.97041C3.01024 4.57436 3.29803 3.85761 3.29922 3.57642C3.29997 3.38725 3.24577 3.37352 2.85266 3.46355ZM5.07774 4.53275C5.07774 5.31003 5.08237 5.34498 5.18548 5.34498C5.2886 5.34498 5.29323 5.31003 5.29323 4.53275C5.29323 3.75548 5.2886 3.72052 5.18548 3.72052C5.08237 3.72052 5.07774 3.75548 5.07774 4.53275ZM7.50203 4.29694C7.50203 4.40049 7.53797 4.40175 10.4651 4.40175C13.3922 4.40175 13.4281 4.40049 13.4281 4.29694C13.4281 4.1934 13.3922 4.19214 10.4651 4.19214C7.53797 4.19214 7.50203 4.1934 7.50203 4.29694ZM7.5245 4.65941C7.51211 4.67141 7.50203 4.83055 7.50203 5.01312V5.34498H9.72721H11.9523L12.2279 5.47855C12.7078 5.71116 12.9432 6.13504 12.9432 6.76643V7.12664H13.1004C13.1869 7.12664 13.296 7.14094 13.3429 7.15845C13.4192 7.1869 13.4281 7.05626 13.4281 5.9139V4.63755H10.4875C8.8702 4.63755 7.53683 4.64741 7.5245 4.65941ZM3.67159 5.70047C3.43913 5.81858 3.35584 5.8996 3.23441 6.12571C3.10786 6.36131 3.08442 6.46858 3.08442 6.81186C3.08442 7.21514 3.08588 7.21928 3.24712 7.28426C3.45863 7.36947 3.65866 7.60407 3.72853 7.84879C3.75913 7.95595 3.78429 8.32014 3.78445 8.65808L3.78478 9.27249L3.92296 9.2214C4.00291 9.19184 4.83186 9.17031 5.88934 9.17031H7.71753V7.36245V5.55459H5.8381H3.95868L3.67159 5.70047ZM7.98689 7.36245V9.17031H9.86896C10.9615 9.17031 11.809 9.19174 11.8892 9.2214L12.0274 9.27249V8.6171C12.0274 7.764 12.1556 7.44922 12.5715 7.28169C12.7217 7.22117 12.7277 7.20534 12.7277 6.87102C12.7277 6.24524 12.547 5.89755 12.1111 5.6847L11.8446 5.55459H9.91577H7.98689V7.36245ZM9.18557 5.79888C9.11306 5.82734 9.09205 5.96929 9.15864 5.98072C9.35506 6.01436 9.8098 6.01148 9.86847 5.97621C9.90893 5.95184 9.92714 5.8942 9.90893 5.84809C9.88361 5.78384 9.80296 5.76514 9.56436 5.76833C9.39309 5.77059 9.22264 5.78437 9.18557 5.79888ZM10.2162 5.84028C10.1503 6.00723 10.2532 6.03003 11.0404 6.02321L11.8224 6.0164L11.9759 6.15941C12.0603 6.23811 12.1368 6.36388 12.1457 6.43897C12.163 6.58313 12.3193 6.65581 12.3623 6.53969C12.4067 6.41979 12.3021 6.1505 12.1559 6.00828C11.9542 5.81209 11.7173 5.76482 10.9348 5.76451C10.3823 5.76424 10.2403 5.77923 10.2162 5.84028ZM2.2342 7.47579C1.69051 7.73644 1.67973 8.4818 2.21577 8.74779C2.33559 8.80727 2.46962 8.8559 2.51364 8.8559C2.58141 8.8559 2.59612 9.02887 2.61007 9.98725C2.62629 11.104 2.62812 11.1199 2.7537 11.2187C2.92571 11.3541 3.26614 11.3516 3.40766 11.214C3.51013 11.1143 3.51573 11.035 3.52161 9.60262C3.52882 7.85539 3.53308 7.93127 3.41666 7.73518C3.22708 7.41584 2.63173 7.2852 2.2342 7.47579ZM12.673 7.48627C12.5698 7.53998 12.4368 7.66376 12.3776 7.76138C12.2783 7.92493 12.2685 8.04985 12.253 9.35371C12.2347 10.8875 12.2492 11.063 12.4075 11.2169C12.546 11.3516 12.8883 11.3526 13.0585 11.2187C13.184 11.1199 13.1859 11.104 13.2021 9.98725C13.2164 9.0044 13.2296 8.8559 13.3025 8.8559C13.4923 8.8559 13.807 8.62334 13.9174 8.40157C14.0412 8.15287 14.0279 7.98566 13.8637 7.72297C13.6645 7.40442 13.0611 7.28447 12.673 7.48627ZM4.05414 9.41654C3.90017 9.47261 3.78478 9.60634 3.78478 9.72865V9.85153H7.90608H12.0274V9.72865C12.0274 9.66105 11.9764 9.56086 11.914 9.50594C11.8049 9.40994 11.6539 9.40575 7.96777 9.39663C5.85971 9.39139 4.09859 9.40035 4.05414 9.41654ZM3.78478 10.5852V11.1092H7.90608H12.0274V10.5852V10.0611H7.90608H3.78478V10.5852ZM0.11245 10.1921C0.0902547 10.2137 0.317654 11.4723 0.417858 11.8821C0.445118 11.9936 0.473186 12 0.932187 12C1.27218 12 1.4248 11.9803 1.44129 11.9345C1.47485 11.8411 1.73759 10.345 1.73759 10.2473C1.73759 10.1774 1.62494 10.1659 0.93849 10.1659C0.498938 10.1659 0.127266 10.1777 0.11245 10.1921ZM2.87884 11.6672C2.88822 11.7435 2.93827 11.8318 2.99015 11.8634C3.12009 11.9426 3.26808 11.8457 3.29 11.6672C3.30606 11.5368 3.29361 11.5284 3.08442 11.5284C2.87523 11.5284 2.86279 11.5368 2.87884 11.6672ZM12.5222 11.6672C12.5315 11.7435 12.5816 11.8318 12.6335 11.8634C12.7634 11.9426 12.9114 11.8457 12.9333 11.6672C12.9494 11.5368 12.9369 11.5284 12.7277 11.5284C12.5186 11.5284 12.5061 11.5368 12.5222 11.6672Z" fill="#3B006B"/>
</svg>
