<svg width="21" height="15" viewBox="0 0 21 15" fill="none" xmlns="http://www.w3.org/2000/svg">
<path fill-rule="evenodd" clip-rule="evenodd" d="M4.94427 0.115738C4.15576 0.289357 3.03281 0.648038 2.81495 0.795805C2.76804 0.827684 2.74416 0.948846 2.73289 1.21292L2.71695 1.58517L2.56065 1.66423C2.23596 1.82853 2.10784 1.97738 1.88554 2.44851C1.51492 3.2341 1.03375 4.93318 0.55515 7.14634C0.0954155 9.27234 -0.00235397 9.96244 4.25659e-05 11.0631C0.0024391 12.1708 0.110105 12.7315 0.456316 13.4397C0.87451 14.2951 1.54541 14.7497 2.68145 14.9474C3.22919 15.0428 3.41501 15.0104 3.69385 14.7708C4.10464 14.4177 4.38902 13.7979 4.97036 11.9887C5.17713 11.3452 5.37493 10.7599 5.40999 10.6881C5.48553 10.533 5.88135 10.146 6.0737 10.0391C6.27239 9.92863 6.86509 9.90772 7.14162 10.0014C7.72473 10.1989 13.2599 10.1989 13.843 10.0014C14.126 9.90556 14.7121 9.92858 14.9193 10.0437C14.9987 10.0877 15.1828 10.2451 15.3284 10.3933L15.5933 10.6628L15.9701 11.8477C16.5795 13.7631 16.8209 14.3056 17.2438 14.7091C17.564 15.0145 17.7254 15.051 18.3032 14.9487C18.9251 14.8385 19.2485 14.7279 19.5743 14.5139C19.9209 14.2863 20.0161 14.2005 20.2416 13.912C21.0003 12.9418 21.1925 11.2815 20.8058 9.03826C20.3755 6.54172 19.5664 3.42156 19.0886 2.41653C18.9046 2.02936 18.7527 1.85273 18.4644 1.69046L18.2589 1.57471L18.2582 1.29213C18.2574 0.873078 18.2326 0.817466 17.9992 0.710949C17.3883 0.432085 15.919 0.0470341 15.3201 0.00884448C14.8468 -0.0213399 14.7498 0.0310706 14.5889 0.40402C14.488 0.637866 14.4668 0.65948 14.3601 0.637113C14.2954 0.623598 13.8231 0.576038 13.3105 0.531491C12.0055 0.418052 9.02835 0.417252 7.67418 0.529984C7.13718 0.574719 6.65352 0.621668 6.59938 0.634335C6.51608 0.65383 6.48621 0.620914 6.40464 0.419653C6.26249 0.069119 6.15269 -0.00358704 5.77094 0.000133035C5.59728 0.00182826 5.22528 0.0538623 4.94427 0.115738ZM8.33163 0.795946C7.34834 0.863237 6.46109 0.952048 6.40517 0.988683C6.36239 1.01675 6.38245 1.22324 6.49491 1.91187C6.77575 3.6321 6.94639 4.49064 7.04545 4.68187C7.20038 4.98098 7.43342 5.08863 8.02341 5.13374C8.66408 5.18271 12.3206 5.18271 12.9612 5.13374C13.7502 5.07342 13.951 4.90036 14.1009 4.15164C14.2039 3.63752 14.6197 1.17045 14.6197 1.07373C14.6197 0.969141 14.5449 0.954449 13.5546 0.864179C12.6255 0.779512 9.22136 0.735059 8.33163 0.795946ZM5.63269 1.06544C5.55946 1.07636 5.16004 1.1575 4.74509 1.24579C3.60314 1.48868 2.77997 1.80366 2.42493 2.13357C2.08294 2.45138 1.64784 3.76593 1.06681 6.23643C0.80368 7.35533 0.561408 8.52367 0.410071 9.40339C0.280659 10.1556 0.267034 11.8506 0.386328 12.3581C0.544277 13.0299 0.861995 13.6664 1.19374 13.9755C1.49091 14.2523 2.20574 14.6041 2.28589 14.5129C2.3032 14.4933 2.44801 14.0851 2.60769 13.6059C3.49472 10.9446 4.36919 8.69036 4.91378 7.66141C5.008 7.48341 5.29043 7.10448 5.55693 6.79859C6.21372 6.04464 6.43597 5.70168 6.52815 5.30006C6.60164 4.97985 6.60107 4.96718 6.4784 4.26409C6.4101 3.87263 6.26014 2.99079 6.14515 2.30446C5.91646 0.939475 5.94903 1.01821 5.63269 1.06544ZM15.0504 1.0669C15.0394 1.08715 15.0161 1.20963 14.9987 1.33912C14.9813 1.46862 14.8677 2.14671 14.7464 2.84599C14.3565 5.094 14.3744 4.94255 14.4571 5.29841C14.5497 5.69636 14.7771 6.05373 15.352 6.7046C15.596 6.98092 15.8526 7.2959 15.922 7.40454C16.3947 8.14417 17.327 10.492 18.347 13.5118L18.689 14.5242L18.8179 14.5137C19.0686 14.4934 19.5993 14.17 19.8787 13.8674C20.4005 13.3022 20.6436 12.549 20.6864 11.3654C20.7243 10.3149 20.6468 9.65391 20.2726 7.83748C19.7214 5.16133 19.0426 2.78736 18.6874 2.29396C18.3662 1.84764 17.2568 1.41343 15.7736 1.15354C15.5417 1.11291 15.2886 1.0685 15.2112 1.05489C15.1337 1.04128 15.0614 1.0467 15.0504 1.0669ZM5.23291 1.85103C5.1738 1.94681 5.17131 2.01217 5.21547 2.31016C5.27991 2.74508 5.34808 2.86953 5.52174 2.86953C5.71843 2.86953 5.79246 2.71899 5.74169 2.42218C5.7195 2.29269 5.69012 2.11855 5.67641 2.0352C5.6279 1.74117 5.36756 1.63306 5.23291 1.85103ZM15.4027 1.79924C15.3512 1.83926 15.3032 1.99663 15.258 2.27456C15.1951 2.66144 15.1957 2.69624 15.267 2.77978C15.3563 2.88451 15.5627 2.89826 15.6362 2.80436C15.7154 2.70307 15.8232 1.97898 15.7736 1.88075C15.7011 1.73694 15.5312 1.69959 15.4027 1.79924ZM16.7277 2.42077C16.2845 2.591 16.1248 3.19874 16.4241 3.57616C16.7395 3.97388 17.2612 3.95151 17.5569 3.5277C17.7652 3.22916 17.6755 2.72304 17.3778 2.51697C17.1638 2.36888 16.9465 2.33676 16.7277 2.42077ZM3.56901 2.8572C3.45917 2.86723 3.35115 2.89444 3.32896 2.91766C3.27979 2.96908 3.2927 3.54169 3.3464 3.69157C3.3677 3.751 3.49388 3.92363 3.62679 4.07517C3.90692 4.39448 3.90759 4.39429 4.16752 3.94746C4.32995 3.66827 4.33386 3.65103 4.31455 3.29758C4.30368 3.09792 4.28007 2.90928 4.2621 2.87848C4.23028 2.82386 4.0078 2.81698 3.56901 2.8572ZM18.1843 3.76753C18.1066 3.79216 17.9718 3.9007 17.8847 4.00868C17.4882 4.50015 17.8036 5.22401 18.4142 5.22401C18.8194 5.22401 19.1021 4.90955 19.1021 4.45866C19.1021 3.98669 18.6252 3.62758 18.1843 3.76753ZM5.00946 3.94798C4.72867 3.97745 4.56002 4.08359 4.25819 4.4208L4.12629 4.56815L4.25819 4.68158C4.33071 4.74398 4.48759 4.85205 4.6068 4.92174C4.80584 5.03805 4.85058 5.04596 5.15432 5.01875C5.33623 5.00241 5.50585 4.97547 5.53124 4.9588C5.58964 4.92047 5.53466 4.04941 5.46844 3.96474C5.44297 3.93215 5.38962 3.90875 5.3499 3.91266C5.31014 3.91662 5.15694 3.93253 5.00946 3.94798ZM15.6122 4.04503C15.2909 4.12517 15.0635 4.42966 15.0635 4.77962C15.0635 5.01879 15.2431 5.33326 15.4348 5.42979C15.9724 5.70046 16.5704 5.23484 16.4632 4.62889C16.4277 4.42791 16.1696 4.11439 16.0055 4.07291C15.939 4.05605 15.8546 4.03509 15.818 4.02633C15.7813 4.01753 15.6888 4.02596 15.6122 4.04503ZM2.39294 4.1831L2.25979 4.21408L2.27431 4.6837C2.28229 4.94204 2.30759 5.17391 2.33058 5.19896C2.35357 5.22406 2.5168 5.23837 2.6933 5.23074C3.05842 5.21502 3.17629 5.15451 3.47635 4.82883C3.70575 4.57982 3.69971 4.56165 3.30242 4.30558C3.08238 4.16374 3.01097 4.1417 2.78654 4.14651C2.64328 4.14957 2.46616 4.16605 2.39294 4.1831ZM3.70038 5.1416C3.47559 5.51516 3.46037 5.5826 3.50781 5.99308L3.54682 6.33061L3.99062 6.3147C4.23471 6.30594 4.45897 6.27721 4.48892 6.25089C4.58217 6.16905 4.5104 5.51271 4.38956 5.34173C4.24297 5.1344 3.97078 4.84729 3.92077 4.84729C3.89694 4.84729 3.79775 4.97976 3.70038 5.1416ZM17.0897 5.38571C16.7517 5.51587 16.5867 5.80335 16.6279 6.19062C16.6691 6.5784 16.9411 6.82505 17.3277 6.82505C17.5545 6.82505 17.7348 6.72805 17.8745 6.53079C18.1052 6.20488 18.0646 5.81748 17.7701 5.53518C17.6726 5.4417 17.558 5.365 17.5154 5.36462C17.4727 5.36429 17.3979 5.35407 17.3491 5.34202C17.3002 5.32991 17.1835 5.34955 17.0897 5.38571ZM7.18089 6.61583C6.93791 6.71105 6.6585 6.97103 6.50889 7.24104C6.40047 7.43675 6.38715 7.5071 6.38733 7.88457C6.38751 8.36361 6.4334 8.49099 6.72791 8.82998C7.30054 9.48919 8.36332 9.30135 8.76283 8.47036C9.05423 7.86437 8.81245 7.06055 8.23528 6.71651C7.94534 6.54369 7.47864 6.49915 7.18089 6.61583ZM13.0108 6.60684C12.6547 6.74783 12.3119 7.13542 12.2181 7.50333C12.1492 7.77344 12.191 8.26915 12.3021 8.49993C12.4045 8.71287 12.6738 8.99089 12.8953 9.11243C13.088 9.21819 13.5485 9.25384 13.7911 9.18179C14.0718 9.09839 14.3991 8.81774 14.5407 8.53883C14.8732 7.88429 14.6557 7.07811 14.0491 6.71651C13.7647 6.54704 13.2889 6.49674 13.0108 6.60684ZM7.32296 6.83419C7.06981 6.90845 6.69835 7.30772 6.63045 7.57849C6.39781 8.50605 7.2898 9.28896 8.08483 8.85508C8.43242 8.66541 8.63697 8.31765 8.63927 7.91254C8.64269 7.3186 8.26399 6.86607 7.7139 6.80664C7.59443 6.79374 7.41851 6.80612 7.32296 6.83419ZM13.1572 6.83052C12.2966 7.10731 12.1409 8.29354 12.8976 8.80875C13.1028 8.94846 13.1658 8.96744 13.4204 8.96589C14.0137 8.96231 14.4497 8.51764 14.4531 7.91254C14.4556 7.46764 14.2556 7.10881 13.8955 6.91231C13.6895 6.79991 13.3643 6.76388 13.1572 6.83052ZM4.51817 12.2286C4.45502 12.3775 4.27754 12.8066 4.12376 13.1821C3.96999 13.5577 3.79229 13.9874 3.72878 14.1371C3.66532 14.2867 3.61339 14.4233 3.61339 14.4405C3.61339 14.4983 3.84111 14.1499 3.94868 13.9277C4.14209 13.5278 4.7047 11.9578 4.65451 11.9578C4.6427 11.9578 4.58132 12.0796 4.51817 12.2286ZM16.4418 12.3581C16.637 12.9466 16.9093 13.6659 17.036 13.9277C17.142 14.1468 17.3713 14.4986 17.3713 14.4421C17.3713 14.4258 17.2498 14.1197 17.1015 13.762C16.9531 13.4042 16.7313 12.8678 16.6085 12.57C16.3303 11.8946 16.2571 11.8017 16.4418 12.3581Z" fill="#3B006B"/>
</svg>
