<svg width="16" height="12" viewBox="0 0 16 12" fill="none" xmlns="http://www.w3.org/2000/svg">
<path fill-rule="evenodd" clip-rule="evenodd" d="M7.54044 0.0180867C6.3272 0.171817 5.20018 0.648651 4.28643 1.39483C3.65746 1.90843 3.17356 2.50268 2.79937 3.221C1.81954 5.10198 1.98065 7.30612 3.22683 9.06901C3.32392 9.20636 3.3592 9.21913 3.78713 9.27194C4.67216 9.38114 5.64424 9.37721 6.65972 9.26036C6.91386 9.23113 7.03891 9.20333 7.14417 9.15274C7.26973 9.09236 7.29797 9.0879 7.38947 9.11391C7.47004 9.1368 7.53802 9.13453 7.69735 9.10359C8.0595 9.03327 8.02697 9.0539 8.02697 8.89458C8.02697 8.8166 8.00762 8.66403 7.98396 8.55554C7.94365 8.37055 7.94435 8.34254 7.99528 8.10609C8.0453 7.8737 8.04621 7.84497 8.00682 7.74001C7.97788 7.66296 7.9625 7.51427 7.95928 7.28038C7.95452 6.93517 7.95438 6.93446 7.86689 6.82966L7.77928 6.7247L7.87187 6.68281C7.94974 6.64757 7.96225 6.62992 7.95052 6.57168C7.93042 6.47192 7.80739 6.3672 7.64578 6.31231C7.44557 6.24431 7.39406 6.18113 7.36161 5.9637C7.34657 5.86288 7.31902 5.77557 7.30036 5.76969C7.23036 5.74753 7.01934 5.54078 6.96654 5.44257C6.88516 5.29127 6.90599 5.18703 7.03304 5.10924C7.11245 5.06065 7.1373 5.02791 7.1373 4.97202C7.1373 4.81562 7.19994 4.62644 7.2806 4.53932C7.32577 4.49049 7.36517 4.41777 7.36817 4.37767C7.37685 4.2615 7.29047 4.24048 6.92879 4.27076C6.55379 4.3022 6.45768 4.27422 6.34208 4.10007C6.2146 3.90804 6.09886 3.86117 5.93505 3.93529C5.83991 3.97834 5.8329 3.97765 5.67766 3.9102C5.47834 3.82363 5.37937 3.82313 5.1778 3.9077C4.98432 3.98889 4.80339 4.01587 4.72373 3.97541C4.68462 3.95557 4.64631 3.88601 4.60905 3.76729C4.53651 3.53627 4.49078 3.47381 4.42948 3.52208C4.40484 3.54147 4.37459 3.59443 4.36228 3.63978C4.33392 3.74418 4.25121 3.75911 4.1217 3.68317C4.00318 3.61366 3.91224 3.47808 3.91224 3.37083C3.91224 3.32609 3.8622 3.13997 3.80103 2.95722C3.73987 2.77447 3.68982 2.5907 3.68982 2.54884C3.68982 2.50698 3.72688 2.41555 3.77217 2.34567C3.81746 2.2758 3.86987 2.15929 3.88864 2.08675C3.92812 1.93426 4.03858 1.81274 4.42884 1.49251C5.67001 0.474056 7.35522 -0.0193434 8.97756 0.160712C9.4343 0.211411 9.76019 0.281022 10.2234 0.426813C10.6191 0.551396 11.3298 0.868326 11.3554 0.931686C11.3637 0.952235 11.3567 0.997974 11.3397 1.03332C11.3155 1.08375 11.2877 1.09758 11.2107 1.09758C11.1305 1.09758 11.0823 1.07117 10.9467 0.952921C10.8244 0.846248 10.7519 0.803885 10.6707 0.79154C10.6082 0.782071 10.5336 0.747648 10.4983 0.711985C10.4489 0.662157 10.4069 0.648968 10.295 0.648229C10.2173 0.647701 10.1226 0.630318 10.0843 0.609585C9.96401 0.544326 9.8927 0.562 9.75488 0.691251C9.63128 0.807156 9.62024 0.811772 9.50275 0.796658C9.35342 0.777428 9.15778 0.662341 9.00673 0.504865C8.89435 0.387721 8.76816 0.331061 8.72045 0.376325C8.68336 0.411513 8.68066 0.628577 8.71653 0.692148C8.73349 0.722219 8.8204 0.819422 8.90964 0.908131C9.04893 1.04659 9.0928 1.07365 9.21961 1.09945C9.30087 1.11599 9.39248 1.15337 9.42318 1.18249L9.479 1.23545L9.41061 1.30037C9.3537 1.35434 9.29348 1.37143 9.05296 1.40174C8.89388 1.42179 8.6699 1.46882 8.55522 1.50625C8.32413 1.58164 8.24903 1.57766 8.20769 1.48776C8.16343 1.39151 8.07113 1.39731 7.98727 1.50161C7.93573 1.56573 7.864 1.60941 7.74136 1.65138C7.52175 1.72656 7.49873 1.74508 7.49873 1.84671C7.49873 1.96375 7.43395 2.038 7.31304 2.05953C7.16727 2.08546 7.00438 2.1695 6.99276 2.22473C6.98737 2.2504 6.99813 2.3275 7.01667 2.39606C7.05395 2.5338 7.0314 2.65456 6.95311 2.73665C6.89442 2.79819 6.67882 2.80309 6.53527 2.7462C6.37185 2.68141 6.22152 2.69618 6.00689 2.79806C5.7835 2.9041 5.68464 2.99294 5.68464 3.08763C5.68464 3.1785 5.7336 3.2282 5.8579 3.26355C5.95012 3.28977 5.98126 3.28494 6.13061 3.22134C6.22333 3.18188 6.3111 3.15656 6.32567 3.16508C6.34202 3.17468 6.33785 3.24371 6.31475 3.34587C6.24958 3.63408 6.25411 3.63922 6.58701 3.65624L6.84519 3.66942L6.89362 3.76726C6.92025 3.82104 6.96904 3.87879 7.00205 3.89554C7.08937 3.93988 7.296 3.90941 7.39737 3.83721C7.48266 3.77649 7.49901 3.77494 8.05478 3.77494C8.70916 3.77494 8.77686 3.7891 8.90275 3.95228C9.04615 4.13813 9.11071 4.16834 9.3971 4.1835L9.65191 4.19698L9.71196 4.2988C9.74499 4.3548 9.78038 4.47063 9.79058 4.55617C9.80763 4.69917 9.81633 4.71473 9.89809 4.74833C10.0367 4.80534 10.1716 4.91238 10.2349 5.01583C10.2848 5.09716 10.3245 5.12063 10.5195 5.18389C10.9486 5.32311 11.0867 5.42612 11.031 5.56521C11.0149 5.60525 11.0016 5.67581 11.0014 5.72202C11.0008 5.83838 10.9724 5.87127 10.8045 5.95006C10.6592 6.01827 10.6428 6.04006 10.6002 6.22278C10.5872 6.27862 10.5528 6.30893 10.4588 6.34713C10.3531 6.3901 10.3346 6.40893 10.3346 6.47295C10.3346 6.58506 10.2592 6.80478 10.1936 6.88389C10.1443 6.94337 10.1146 6.95348 9.98917 6.95348C9.80826 6.95348 9.67554 6.9951 9.63667 7.06403C9.62046 7.09275 9.61134 7.11989 9.6164 7.1243C9.62146 7.12873 9.95606 7.3067 10.3599 7.51978L11.0943 7.9072L11.5137 7.76929C12.048 7.59367 12.4895 7.35431 13.1744 6.86896L13.4703 6.65926L13.4808 6.46266C13.4903 6.28493 13.4987 6.26045 13.5688 6.20743C13.6297 6.16137 13.6466 6.12613 13.6479 6.04331C13.6501 5.88514 13.589 5.71775 13.5215 5.69744C13.49 5.68792 13.3923 5.61511 13.3044 5.53561C13.152 5.39763 13.1335 5.38895 12.8964 5.34382C12.4897 5.2664 12.4135 5.18608 12.4926 4.91845L12.5388 4.76237L12.4654 4.63438C12.3737 4.4745 12.3734 4.41618 12.464 4.26952C12.5071 4.19988 12.5301 4.13085 12.5212 4.09844C12.5129 4.06858 12.531 3.99799 12.5613 3.94159C12.6219 3.82898 12.6137 3.79662 12.516 3.76138C12.3708 3.70899 12.3799 3.55719 12.5331 3.47724C12.7036 3.38829 12.7534 3.33865 12.7534 3.25735C12.7534 3.21414 12.7729 3.14292 12.7968 3.09905C12.8536 2.99491 12.831 2.9061 12.711 2.76226C12.6578 2.69856 12.6143 2.62702 12.6143 2.60328C12.6143 2.53502 12.6956 2.44285 12.7558 2.44285C12.8052 2.44285 12.8016 2.43072 12.7195 2.32188C12.5264 2.06591 12.4473 1.99704 12.2931 1.95093C12.2111 1.92642 12.1378 1.89089 12.1301 1.87198C12.1225 1.85307 12.1464 1.80353 12.1834 1.76188C12.2519 1.68464 12.2369 1.62514 12.1489 1.62514C12.0486 1.62514 11.7348 1.26384 11.7897 1.21171C11.8185 1.18441 12.1123 1.41285 12.4557 1.72941C12.9932 2.22502 13.3274 2.662 13.657 3.30013C14.0392 4.04006 14.2175 4.70402 14.2467 5.4961C14.2553 5.73186 14.2711 5.92474 14.2815 5.92474C14.292 5.92474 14.3303 5.89475 14.3666 5.85808L14.4326 5.79142L14.3997 5.38169C14.2094 3.01404 12.5723 1.01282 10.2251 0.278701C9.55354 0.0686533 9.16801 0.0104108 8.3884 0.0011785C8.02906 -0.00306835 7.64747 0.00452847 7.54044 0.0180867ZM11.9094 0.955426C12.2277 1.17114 12.3462 1.26531 12.656 1.54853C12.9051 1.77623 12.95 1.80617 13.087 1.83629C13.3919 1.90332 13.9141 2.07992 14.2265 2.2217C14.8139 2.48825 15.2716 2.81736 15.5715 3.18882C15.7505 3.4105 15.7577 3.45007 15.6854 3.81165C15.4507 4.98539 14.4239 6.21521 12.809 7.25669C12.679 7.34049 12.5937 7.40219 12.6195 7.39378C12.8305 7.32488 12.9023 7.31918 13.0203 7.36196C13.0862 7.38581 13.1781 7.44651 13.2247 7.49686C13.3294 7.61005 13.3406 7.78274 13.2531 7.93761L13.1967 8.03732L13.4207 7.8814C13.9796 7.49214 14.6442 6.90462 14.9924 6.49186C15.9609 5.34397 16.2392 4.2064 15.7926 3.221C15.7466 3.11944 15.6879 2.98159 15.6621 2.91465C15.5991 2.75097 15.4134 2.45981 15.2673 2.29558C14.7181 1.67834 13.9231 1.25413 12.8229 0.991116C12.4466 0.901193 11.8984 0.80742 11.7487 0.80742C11.7094 0.80742 11.7607 0.854636 11.9094 0.955426ZM2.4938 3.22609C1.30981 4.06172 0.466988 5.054 0.145761 5.99044C-0.0647581 6.60426 -0.0489108 7.1377 0.204173 7.95584C0.351914 8.43349 0.736725 8.92404 1.24323 9.28046C2.30658 10.0287 4.06877 10.4101 5.99277 10.3084C6.32409 10.2908 6.78838 10.2527 7.02454 10.2235C7.44563 10.1716 7.45536 10.1689 7.53079 10.0853C7.57308 10.0385 7.60819 9.99369 7.6088 9.98583C7.60944 9.97797 7.46904 9.83073 7.29683 9.65864L6.98372 9.34574L6.56702 9.39285C5.95779 9.46175 4.66705 9.47737 4.1194 9.42242C3.57461 9.36779 3.25767 9.3158 2.81008 9.20771C1.77291 8.95717 0.913547 8.49827 0.428704 7.93603C0.274791 7.75753 0.270148 7.74748 0.270148 7.59311C0.270148 6.76361 0.879601 5.69918 1.87815 4.78474L2.18686 4.50199L2.24338 4.292C2.31737 4.01706 2.44384 3.67932 2.59433 3.35466C2.66114 3.21053 2.71266 3.08961 2.70879 3.08594C2.70493 3.08228 2.60818 3.14535 2.4938 3.22609ZM8.16599 6.67242C8.06659 6.7179 7.98102 6.75728 7.97579 6.75997C7.96731 6.76432 9.31883 8.36963 9.54779 8.6271C9.62171 8.71027 9.63328 8.73763 9.6052 8.76284C9.58585 8.78023 9.27176 8.95696 8.90728 9.15558L8.24453 9.51675L7.77701 9.36328L7.30945 9.20979L7.20603 9.25659C7.14915 9.28233 7.1073 9.30792 7.113 9.31348C7.11873 9.31905 7.27909 9.47389 7.46935 9.65758L7.81532 9.99155L7.69871 10.0937C7.6346 10.1499 7.58214 10.2021 7.58214 10.2097C7.58214 10.2173 7.65721 10.2161 7.74895 10.207C7.88112 10.1939 7.91593 10.1981 7.91654 10.2272C7.91832 10.311 8.04649 11.0958 8.06059 11.1091C8.06901 11.1171 8.11739 11.1017 8.1681 11.0748C8.25365 11.0294 8.2713 10.9944 8.41343 10.5875L8.56656 10.149L9.31316 9.8541C9.7238 9.6919 10.0635 9.56344 10.0681 9.56864C10.0727 9.57383 10.2124 10.1159 10.3786 10.7732C10.5448 11.4306 10.6886 11.9803 10.6981 11.9949C10.7086 12.011 10.7867 11.9881 10.896 11.937L11.0766 11.8525L11.1638 11.2956C11.4639 9.3809 11.5301 8.95474 11.5301 8.9377C11.5302 8.9272 11.8867 8.69903 12.3223 8.43064C13.1904 7.89577 13.2313 7.85951 13.181 7.66842C13.1524 7.55959 13.0095 7.45466 12.8899 7.45466C12.8472 7.45466 12.4235 7.5856 11.9485 7.7456L11.0847 8.03655L9.79915 7.35983C9.09205 6.98764 8.47598 6.66211 8.43011 6.63644C8.34778 6.59036 8.34434 6.59083 8.16599 6.67242ZM14.0136 7.59314C13.9665 7.64057 13.8665 7.8169 13.7899 7.98781C13.5444 8.53475 13.1363 9.14395 12.7352 9.56228C12.6065 9.69644 12.5946 9.70277 12.53 9.67109C12.4234 9.61875 12.3363 9.53398 12.3363 9.48251C12.3363 9.45674 12.379 9.40478 12.4312 9.367C12.5582 9.2751 12.571 9.23176 12.4907 9.16548C12.3109 9.01713 12.3382 8.91082 12.6326 8.61478C12.7333 8.51352 12.8093 8.43064 12.8015 8.43064C12.7936 8.43064 12.6701 8.49645 12.527 8.57688C12.3839 8.65733 12.1261 8.79086 11.9542 8.87363C11.7822 8.9564 11.6413 9.03601 11.641 9.05052C11.6407 9.06503 11.5787 9.46228 11.5032 9.93328C11.4277 10.4043 11.3714 10.7948 11.378 10.8011C11.3846 10.8073 11.4958 10.7484 11.6251 10.6701C12.6897 10.0254 13.563 9.0009 14.0181 7.86267C14.0871 7.69026 14.1435 7.5398 14.1435 7.5283C14.1435 7.48615 14.0967 7.5095 14.0136 7.59314ZM8.85401 8.54066C8.58786 8.93024 8.60181 8.90676 8.64413 8.89344C8.66404 8.88719 8.83672 8.83902 9.02786 8.7864C9.219 8.73378 9.38406 8.68265 9.39465 8.67279C9.40527 8.66292 9.3339 8.56192 9.23607 8.44834L9.05816 8.24183L8.85401 8.54066ZM9.07768 8.89333C9.05596 8.91394 8.40233 9.07698 8.07218 9.14416C7.91735 9.17566 7.78115 9.20971 7.76955 9.21987C7.75796 9.23 7.85805 9.27138 7.99197 9.31185L8.23549 9.38542L8.68033 9.14319C9.15127 8.88674 9.16409 8.87906 9.12052 8.87906C9.10523 8.87906 9.08596 8.8855 9.07768 8.89333ZM9.31978 9.97873C8.96808 10.1182 8.67694 10.2347 8.67279 10.2377C8.66865 10.2406 8.59509 10.4408 8.50932 10.6826L8.35343 11.1222L8.17435 11.2008C7.98316 11.2848 7.94357 11.294 7.94357 11.2545C7.94357 11.2262 7.84156 10.5463 7.81768 10.4156C7.80261 10.333 7.79725 10.3299 7.66986 10.3299C7.59715 10.3299 7.52578 10.3191 7.51124 10.3058C7.49534 10.2914 7.32458 10.3016 7.0817 10.3316C6.4413 10.4106 5.86137 10.4414 5.20121 10.4314L4.58803 10.4222L4.72971 10.5233C4.80764 10.5789 5.00279 10.6986 5.16334 10.7892C5.9065 11.2087 6.74849 11.4771 7.62112 11.5726C8.06056 11.6208 8.98979 11.5876 9.41917 11.5084C9.83282 11.4322 10.362 11.283 10.3633 11.2423C10.365 11.1917 9.98762 9.72366 9.97313 9.72442C9.96549 9.72485 9.67148 9.83927 9.31978 9.97873Z" fill="#3B006B"/>
</svg>
