<svg width="40" height="40" viewBox="0 0 40 40" fill="none" xmlns="http://www.w3.org/2000/svg">
<circle cx="20" cy="20" r="19.5" stroke="#3B006B"/>
<path d="M29.999 16C29.9991 15.8185 29.9497 15.6405 29.856 15.485L27.147 10.97C26.9686 10.6748 26.7171 10.4306 26.417 10.2607C26.1168 10.0908 25.7779 10.001 25.433 10H14.565C13.867 10 13.21 10.372 12.851 10.971L10.142 15.485C10.0484 15.6405 9.99893 15.8185 9.99902 16C9.99902 17.005 10.385 17.914 10.999 18.618V28C10.999 28.2652 11.1044 28.5196 11.2919 28.7071C11.4795 28.8946 11.7338 29 11.999 29H19.999C20.2642 29 20.5186 28.8946 20.7061 28.7071C20.8937 28.5196 20.999 28.2652 20.999 28V23H24.999V28C24.999 28.2652 25.1044 28.5196 25.2919 28.7071C25.4795 28.8946 25.7338 29 25.999 29H27.999C28.2642 29 28.5186 28.8946 28.7061 28.7071C28.8937 28.5196 28.999 28.2652 28.999 28V18.618C29.613 17.914 29.999 17.005 29.999 16ZM27.983 16.251C27.9215 16.7339 27.6861 17.1779 27.321 17.4998C26.9558 17.8217 26.4858 17.9995 25.999 18C24.896 18 23.999 17.103 23.999 16C23.999 15.932 23.974 15.872 23.96 15.808L23.98 15.804L23.219 12H25.433L27.983 16.251ZM18.006 16.065L18.818 12H21.179L21.992 16.065C21.957 17.138 21.079 18 19.999 18C18.919 18 18.041 17.138 18.006 16.065ZM14.565 12H16.779L16.019 15.804L16.039 15.808C16.024 15.872 15.999 15.932 15.999 16C15.999 17.103 15.102 18 13.999 18C13.5122 17.9995 13.0423 17.8217 12.6771 17.4998C12.3119 17.1779 12.0765 16.7339 12.015 16.251L14.565 12ZM17.999 24H13.999V21H17.999V24Z" fill="#3B006B"/>
</svg>
